<svg width="50" height="50" viewBox="0 0 50 50" fill="none" xmlns="http://www.w3.org/2000/svg">
<g clip-path="url(#clip0)">
<path d="M16.6406 11.961L16.4297 12.1836C15.7417 12.8441 15.0835 13.5348 14.4571 14.2539C14.4063 14.3086 14.3399 14.3867 14.2774 14.457C12.6758 16.168 11.1055 17.9024 9.56252 19.6602C7.41799 22.0313 3.77737 24.5274 2.80081 25.7656C1.80081 27.0352 1.12112 28.3438 0.714868 29.6406C0.64065 29.875 0.574243 30.1094 0.519556 30.3399C0.496118 30.4258 0.472681 30.5156 0.45315 30.6016C0.121118 32.0781 0.20315 33.5117 0.648462 34.8242C0.691431 34.9531 0.726587 35.082 0.777368 35.207C0.824243 35.332 0.886743 35.4531 0.941431 35.5742C1.50393 36.8399 2.41799 37.9453 3.66409 38.8047C3.73831 38.8555 3.81643 38.9024 3.89456 38.9531C4.09377 39.086 4.30081 39.211 4.51174 39.336C5.69143 40.0117 7.07815 40.5117 8.67581 40.7617C10.2305 41.0078 14.9688 41.3047 18.1524 41.586C20.4805 41.832 34.1406 40.9141 36.6719 39.9219C41.5781 37.9961 45.6367 35.3594 47.5547 30.6094C47.9219 29.7031 48.2071 28.8125 48.4375 27.9297C48.5117 27.6406 48.5742 27.3516 48.6367 27.0664C49.3516 23.6758 49.0469 20.4492 47.7071 17.375C46.6016 14.211 44.6407 11.6367 41.8125 9.62893C41.5742 9.46096 41.3321 9.28908 41.0782 9.12893C40.2878 8.61896 39.4644 8.16222 38.6133 7.76174C33.9805 5.57814 28.3985 5.54299 23.4883 7.45705C20.9492 8.44924 18.5899 9.94924 16.6406 11.961Z" fill="#46681E"/>
<path d="M44.1328 17.4883C44.0625 17.4179 43.9883 17.3515 43.918 17.2851C43.279 16.6135 42.6076 15.9734 41.9062 15.3672C41.8516 15.3203 41.7734 15.2539 41.707 15.1953C40.0469 13.6406 38.3594 12.1133 36.6445 10.6133C34.3398 8.52732 31.1484 4.42185 29.9414 3.47263C28.7031 2.49997 27.4141 1.83982 26.1328 1.44138C25.8984 1.36716 25.668 1.30466 25.4336 1.24997C25.3477 1.22654 25.2578 1.2031 25.1719 1.18357C23.7031 0.859348 22.2695 0.933567 20.9453 1.35935C20.8164 1.40232 20.6875 1.43357 20.5586 1.48435C20.4336 1.53122 20.3086 1.58982 20.1875 1.6406C18.9062 2.18357 17.7734 3.06638 16.8789 4.27341C16.8242 4.34372 16.7773 4.42185 16.7227 4.49607C16.582 4.68747 16.4531 4.88669 16.3242 5.09372C15.6172 6.23435 15.0742 7.5781 14.7734 9.12497C14.4805 10.6328 14.8477 15.789 14.4727 18.875C14.1562 21.1289 13.8828 23.3906 13.6445 25.6523C13.6328 25.7422 13.6211 25.8398 13.6094 25.914C13.4756 26.831 13.3869 27.754 13.3437 28.6797C13.3359 28.7773 13.3242 28.875 13.3125 28.9765C13.0742 31.6875 13.4922 34.3554 14.4102 36.8125C16.1875 41.5742 19.8828 45.5312 24.5742 47.4023C25.4687 47.7578 26.3516 48.039 27.2266 48.2656C27.5156 48.3398 27.8008 48.4023 28.0859 48.4609C31.457 49.164 34.6875 48.8711 37.8008 47.582C40.9961 46.5195 43.6289 44.625 45.7187 41.8867C45.8945 41.6562 46.0703 41.4218 46.2383 41.1758C46.7705 40.4126 47.252 39.6153 47.6797 38.789C50 34.3047 50.2031 28.8945 48.4297 24.1328C47.5156 21.6718 46.0859 19.3828 44.1328 17.4883ZM45.3203 37.5664C44.9424 38.2912 44.5197 38.9918 44.0547 39.664C43.9102 39.875 43.7578 40.0742 43.6055 40.2773C41.9453 42.457 39.9336 43.9609 37.4648 44.8828L36.875 45.0898C36.875 45.0898 36.4609 45.2578 36.2969 45.3203C33.8242 46.2422 31.3203 46.4179 28.6328 45.8593C28.3867 45.8086 28.1406 45.7539 27.8945 45.6914C27.0781 45.4804 26.3164 45.2343 25.5664 44.9336C21.6836 43.3867 18.4492 40.0039 16.9062 35.8828C16.0859 33.6875 15.7695 31.4453 15.9648 29.2109L15.9961 28.9023C16.043 27.957 16.125 27.1133 16.2461 26.2968L16.293 25.9336C16.5267 23.6999 16.7989 21.4704 17.1094 19.2461C17.4258 16.664 17.0898 11.1601 17.3867 9.63279C17.6133 8.46872 18.0156 7.41404 18.5859 6.49607C18.6797 6.34372 18.7773 6.19529 18.8828 6.05075L18.9805 5.91013C19.6133 5.05857 20.3594 4.46091 21.2305 4.08982L21.3984 4.0156L21.5898 3.94529L21.7656 3.8906C22.6641 3.60154 23.6172 3.56247 24.5977 3.78122L24.7773 3.8281C25 3.87888 25.168 3.92966 25.3359 3.98044C26.3672 4.30075 27.3633 4.83591 28.2969 5.56638C29.6719 6.6445 33.7695 11.5976 34.8594 12.5859C36.5547 14.0664 38.2344 15.5859 39.8906 17.1367L40.1719 17.3867C40.793 17.9258 41.4062 18.5117 41.9961 19.125L42.2031 19.3242C43.8945 20.9609 45.125 22.8672 45.9414 25.0625C47.4727 29.1797 47.2383 33.8554 45.3203 37.5664Z" fill="#AFB42B"/>
<path d="M41.9961 19.1211C41.4102 18.5078 40.793 17.9219 40.1719 17.3828L39.8906 17.1328C38.2399 15.5869 36.5626 14.0698 34.8594 12.582C33.7695 11.5976 29.6758 6.64451 28.2969 5.56248C27.3633 4.83201 26.3672 4.29686 25.3359 3.97654C25.168 3.92576 25 3.87498 24.7773 3.8242L24.5977 3.77733C23.6172 3.56248 22.6641 3.59764 21.7656 3.8867L21.5898 3.94139L21.3984 4.0117L21.2305 4.08592C20.3594 4.45701 19.6133 5.05076 18.9805 5.90623L18.8828 6.04686C18.7812 6.19139 18.6836 6.33983 18.5859 6.49217C18.0156 7.41014 17.6133 8.46483 17.3867 9.62889C17.0898 11.1562 17.4258 16.6601 17.1094 19.2422C16.8047 21.4101 16.5312 23.6601 16.293 25.9297L16.2461 26.2929C16.1289 27.1054 16.0469 27.9531 15.9961 28.8984L15.9648 29.207C15.7695 31.4414 16.0859 33.6836 16.9062 35.8789C18.4453 40 21.6836 43.3828 25.5664 44.9297C26.3164 45.2304 27.0781 45.4765 27.8945 45.6875C28.1445 45.75 28.3906 45.8047 28.6328 45.8554C31.3164 46.414 33.8242 46.2383 36.2969 45.3164C36.4609 45.2539 36.875 45.0859 36.875 45.0859L37.4648 44.8789C39.9375 43.957 41.9453 42.4492 43.6055 40.2734C43.7578 40.0742 43.9102 39.8711 44.0547 39.6601C44.5391 38.9648 44.9531 38.2773 45.3203 37.5625C47.2422 33.8515 47.4727 29.1758 45.9414 25.0508C45.125 22.8554 43.8945 20.9531 42.2031 19.3125L41.9961 19.1211Z" fill="#FFF69F"/>
<path d="M39.1172 28.4102C40.6172 32.4336 38.5703 36.9141 34.5469 38.4102C30.5234 39.9063 26.043 37.8633 24.5469 33.8399C23.0508 29.8164 25.5234 22.1328 28.2344 21.3086C31.0234 20.4649 37.6172 24.3867 39.1172 28.4102Z" fill="#855C52"/>
<path d="M32.7891 25.2969C32.5391 26.1719 34.1797 27.832 34.4414 30.3906C34.6406 32.3242 35.6328 33.1992 36.8164 32.957C38.0195 32.7148 38.4805 30.3281 37.1406 28.0898C35.8399 25.9101 33.2031 23.8476 32.7891 25.2969Z" fill="#D7CCC8"/>
</g>
<defs>
<clipPath id="clip0">
<rect width="50" height="50" fill="white"/>
</clipPath>
</defs>
</svg>
