<svg width="168" height="31" viewBox="0 0 168 31" fill="none" xmlns="http://www.w3.org/2000/svg">
<path d="M6.272 30.612L10.124 19.164L0.836 12.936H12.212L16.28 0.659998L20.42 12.936H31.724L22.436 19.164L26.36 30.612L16.28 23.304L6.272 30.612ZM40.2906 30.612L44.1426 19.164L34.8546 12.936H46.2306L50.2986 0.659998L54.4386 12.936H65.7426L56.4546 19.164L60.3786 30.612L50.2986 23.304L40.2906 30.612ZM74.3092 30.612L78.1612 19.164L68.8732 12.936H80.2492L84.3172 0.659998L88.4572 12.936H99.7612L90.4732 19.164L94.3972 30.612L84.3172 23.304L74.3092 30.612ZM108.328 30.612L112.18 19.164L102.892 12.936H114.268L118.336 0.659998L122.476 12.936H133.78L124.492 19.164L128.416 30.612L118.336 23.304L108.328 30.612ZM142.346 30.612L146.198 19.164L136.91 12.936H148.286L152.354 0.659998L156.494 12.936H167.798L158.51 19.164L162.434 30.612L152.354 23.304L142.346 30.612Z" fill="#7C6D6D"/>
</svg>
