<svg width="50" height="50" viewBox="0 0 50 50" fill="none" xmlns="http://www.w3.org/2000/svg">
<path d="M16.3778 8.41942L16.3625 13.0361L23.7903 11.1111L19.7125 8.33331L16.3778 8.41942ZM46.1806 32.6139C46.1806 31.0333 47.2375 29.7375 48.6111 29.5055V13.3125C43.0556 11.9764 1.38892 23.3 1.38892 23.3V28.2111C3.56114 28.6194 5.20836 30.5194 5.20836 32.8111C5.20836 35.1028 3.56114 37.0055 1.38892 37.4139V48.1305L48.6111 39.1278V35.7236C47.2375 35.4903 46.1806 34.193 46.1806 32.6139Z" fill="#FFAC33"/>
<path d="M21.6459 3.11389L16.3084 8.45139C17.332 8.69028 18.0556 9.27222 18.0556 9.95417C18.0556 10.85 16.8111 11.575 15.2778 11.575C14.6195 11.575 14.0236 11.4361 13.5486 11.2139L1.38892 23.3722C19.6764 19.3292 32.0028 16.0306 48.75 13.3361C41.9972 4.33334 26.1486 3.11389 21.6459 3.11389Z" fill="#FFD983"/>
<path d="M27.7778 7.17638C27.7778 8.07221 26.5333 8.79721 25 8.79721C23.4667 8.79721 22.2222 8.07221 22.2222 7.17638C22.2222 6.28054 23.4667 5.55554 25 5.55554C26.5333 5.55554 27.7778 6.28054 27.7778 7.17638ZM20.9333 16.0583C20.9333 17.4167 19.0458 18.518 16.7167 18.518C14.3875 18.518 12.5 17.4167 12.5 16.0583C12.5 14.7014 14.3875 13.5986 16.7167 13.5986C19.0444 13.6 20.9333 14.7014 20.9333 16.0583ZM40.2778 11.6C40.2778 13.1194 38.1653 14.3514 35.5611 14.3514C32.9569 14.3514 30.8444 13.1194 30.8444 11.6C30.8444 10.0805 32.9569 8.8486 35.5611 8.8486C38.1653 8.8486 40.2778 10.0805 40.2778 11.6Z" fill="#FFAC33"/>
<path d="M46.7014 21.6944C46.7014 23.5444 45.3416 25.043 43.6625 25.043C41.9833 25.043 40.6236 23.5444 40.6236 21.6944C40.6236 19.8444 41.9833 18.3458 43.6625 18.3458C45.3416 18.3458 46.7014 19.8444 46.7014 21.6944ZM15.7986 28.4472C15.7986 30.1903 14.5166 31.6028 12.9347 31.6028C11.3527 31.6028 10.0708 30.1889 10.0708 28.4472C10.0708 26.7028 11.3527 25.2903 12.9347 25.2903C14.5166 25.2903 15.7986 26.7042 15.7986 28.4472ZM39.6264 35.3639C38.9277 36.2 37.7444 36.3639 36.9833 35.7278C36.2236 35.093 36.175 33.8986 36.8764 33.0625C37.5777 32.2222 38.7597 32.0597 39.5194 32.6944C40.2805 33.3305 40.3277 34.5236 39.6264 35.3639ZM26.1764 25.1167C25.2361 26.243 23.6416 26.4639 22.618 25.6069C21.5958 24.7528 21.5305 23.1444 22.4736 22.0194C23.418 20.8889 25.0097 20.6708 26.0319 21.525C27.0555 22.3805 27.1208 23.9875 26.1764 25.1167ZM27.3889 39.0264C25.7222 41.2542 22.7305 41.8333 20.7111 40.3222C18.6902 38.8111 18.4014 35.7778 20.068 33.5514C21.7347 31.3222 24.7264 30.743 26.7458 32.2528C28.7666 33.7639 29.0555 36.7972 27.3889 39.0264Z" fill="#F4900C"/>
</svg>
