<svg width="20" height="20" viewBox="0 0 20 20" fill="none" xmlns="http://www.w3.org/2000/svg">
<path d="M11.5251 0.631682C11.1206 0.227221 10.572 0 10 0C9.42798 0 8.87939 0.227221 8.47489 0.631682L0.631682 8.47489C0.227221 8.87939 0 9.42798 0 10C0 10.572 0.227221 11.1206 0.631682 11.5251L8.47489 19.3683C8.87939 19.7728 9.42798 20 10 20C10.572 20 11.1206 19.7728 11.5251 19.3683L19.3683 11.5251C19.7728 11.1206 20 10.572 20 10C20 9.42798 19.7728 8.87939 19.3683 8.47489L11.5251 0.631682ZM0.631682 11.5251L1.10089 11.0559L0.631682 11.5251Z" fill="#7C6D6D"/>
</svg>
