<svg width="12" height="16" viewBox="0 0 12 16" fill="none" xmlns="http://www.w3.org/2000/svg">
<path fill-rule="evenodd" clip-rule="evenodd" d="M4.93019 15.6597L0.340187 8.81169C0.122711 8.59413 0.000375775 8.29921 8.64247e-07 7.9916C-0.000374047 7.68398 0.121242 7.38877 0.338187 7.17069L4.90419 0.338686C5.12231 0.121436 5.41774 -0.000374118 5.7256 8.63198e-07C6.03346 0.000375844 6.32859 0.122905 6.54619 0.340686L11.0862 7.19069C11.1942 7.29815 11.2801 7.42585 11.3387 7.56649C11.3974 7.70713 11.4278 7.85796 11.4282 8.01036C11.4286 8.16275 11.3989 8.31373 11.3409 8.45465C11.2829 8.59558 11.1977 8.7237 11.0902 8.83169L6.57219 15.6617C6.57219 15.6617 5.38519 16.1127 4.93019 15.6597V15.6597Z" fill="#EB734D"/>
</svg>
