<svg width="57" height="50" viewBox="0 0 57 50" fill="none" xmlns="http://www.w3.org/2000/svg">
<g clip-path="url(#clip0)">
<path d="M12.1022 4.73551L12.09 8.42885L18.0322 6.88885L14.77 4.66663L12.1022 4.73551ZM35.9444 24.0911C35.9444 22.8266 36.79 21.79 37.8889 21.6044V8.64996C33.4444 7.58107 0.111084 16.64 0.111084 16.64V20.5688C1.84886 20.8955 3.16664 22.4155 3.16664 24.2488C3.16664 26.0822 1.84886 27.6044 0.111084 27.9311V36.5044L37.8889 29.3022V26.5788C36.79 26.3922 35.9444 25.3544 35.9444 24.0911Z" fill="#FFAC33"/>
<path d="M16.3166 0.49115L12.0466 4.76115C12.8655 4.95226 13.4444 5.41782 13.4444 5.96337C13.4444 6.68004 12.4489 7.26004 11.2222 7.26004C10.6955 7.26004 10.2189 7.14893 9.83886 6.97115L0.111084 16.6978C14.7411 13.4634 24.6022 10.8245 38 8.66893C32.5977 1.46671 19.9189 0.49115 16.3166 0.49115Z" fill="#FFD983"/>
<path d="M21.2222 3.74112C21.2222 4.45779 20.2267 5.03779 19 5.03779C17.7733 5.03779 16.7778 4.45779 16.7778 3.74112C16.7778 3.02446 17.7733 2.44446 19 2.44446C20.2267 2.44446 21.2222 3.02446 21.2222 3.74112ZM15.7467 10.8467C15.7467 11.9333 14.2367 12.8145 12.3733 12.8145C10.51 12.8145 9 11.9333 9 10.8467C9 9.76112 10.51 8.8789 12.3733 8.8789C14.2356 8.88001 15.7467 9.76112 15.7467 10.8467ZM31.2222 7.28001C31.2222 8.49557 29.5322 9.48112 27.4489 9.48112C25.3656 9.48112 23.6756 8.49557 23.6756 7.28001C23.6756 6.06446 25.3656 5.0789 27.4489 5.0789C29.5322 5.0789 31.2222 6.06446 31.2222 7.28001Z" fill="#FFAC33"/>
<path d="M36.3611 15.3555C36.3611 16.8355 35.2733 18.0344 33.93 18.0344C32.5866 18.0344 31.4989 16.8355 31.4989 15.3555C31.4989 13.8755 32.5866 12.6766 33.93 12.6766C35.2733 12.6766 36.3611 13.8755 36.3611 15.3555ZM11.6389 20.7577C11.6389 22.1522 10.6133 23.2822 9.34775 23.2822C8.0822 23.2822 7.05664 22.1511 7.05664 20.7577C7.05664 19.3622 8.0822 18.2322 9.34775 18.2322C10.6133 18.2322 11.6389 19.3633 11.6389 20.7577ZM30.7011 26.2911C30.1422 26.96 29.1955 27.0911 28.5866 26.5822C27.9789 26.0744 27.94 25.1189 28.5011 24.45C29.0622 23.7777 30.0078 23.6477 30.6155 24.1555C31.2244 24.6644 31.2622 25.6189 30.7011 26.2911ZM19.9411 18.0933C19.1889 18.9944 17.9133 19.1711 17.0944 18.4855C16.2766 17.8022 16.2244 16.5155 16.9789 15.6155C17.7344 14.7111 19.0078 14.5366 19.8255 15.22C20.6444 15.9044 20.6966 17.19 19.9411 18.0933ZM20.9111 29.2211C19.5778 31.0033 17.1844 31.4666 15.5689 30.2577C13.9522 29.0489 13.7211 26.6222 15.0544 24.8411C16.3878 23.0577 18.7811 22.5944 20.3966 23.8022C22.0133 25.0111 22.2444 27.4377 20.9111 29.2211Z" fill="#F4900C"/>
<path d="M22.5306 46.7356C12.197 39.435 19.3951 36.7514 17.8322 25.3694C16.2739 14.0176 28.0159 12.0975 40.4192 17.6698C55.4245 24.4114 62.4195 36.5382 49.5428 41.9217C36.6667 47.3047 31.4406 52.6831 22.5306 46.7356V46.7356Z" fill="white"/>
<path d="M28.159 34.6193C30.4794 37.834 34.9664 38.559 38.1811 36.2386C41.3958 33.9183 42.1208 29.4313 39.8005 26.2165C37.4801 23.0018 32.9931 22.2768 29.7784 24.5972C26.5637 26.9175 25.8387 31.4046 28.159 34.6193Z" fill="#F0C419"/>
<path d="M38.2036 28.767C38.7032 30.1571 38.4726 31.6994 37.6431 32.911M52.637 30.4641C53.9943 32.3445 53.7748 36.0764 51.3851 38.393L52.637 30.4641Z" stroke="white" stroke-width="2" stroke-miterlimit="10" stroke-linecap="round" stroke-linejoin="round"/>
</g>
<defs>
<clipPath id="clip0">
<rect width="56.6038" height="50" fill="white"/>
</clipPath>
</defs>
</svg>
