<svg width="26" height="22" viewBox="0 0 27 24" fill="none" xmlns="http://www.w3.org/2000/svg">
<g clip-path="url(#clip0)">
<path fill-rule="evenodd" clip-rule="evenodd" d="M2.4054 3C1.87726 3 1.37076 3.18437 0.997311 3.51256C0.623863 3.84075 0.414063 4.28587 0.414062 4.75L0.414063 18.75C0.414063 19.716 1.30618 20.5 2.4054 20.5H25.7324C26.2606 20.5 26.7671 20.3156 27.1405 19.9874C27.514 19.6592 27.7238 19.2141 27.7238 18.75V4.75C27.7238 4.28587 27.514 3.84075 27.1405 3.51256C26.7671 3.18437 26.2606 3 25.7324 3H2.4054ZM2.12092 4.75C2.12092 4.6837 2.15089 4.62011 2.20424 4.57322C2.25759 4.52634 2.32995 4.5 2.4054 4.5H25.7324C25.8079 4.5 25.8802 4.52634 25.9336 4.57322C25.9869 4.62011 26.0169 4.6837 26.0169 4.75V5.602L14.2282 12.602C14.1812 12.6299 14.1257 12.6449 14.0689 12.6449C14.0121 12.6449 13.9567 12.6299 13.9096 12.602L2.12092 5.602V4.75ZM2.12092 7.412V18.75C2.12092 18.888 2.24836 19 2.4054 19H25.7324C25.8079 19 25.8802 18.9737 25.9336 18.9268C25.9869 18.8799 26.0169 18.8163 26.0169 18.75V7.412L15.1841 13.845C14.5104 14.245 13.6274 14.245 12.9538 13.845L2.12092 7.412Z" fill="#BBBBBB"/>
</g>
<defs>
<clipPath id="clip0">
<rect width="27" height="22" fill="white" transform="translate(0.414062)"/>
</clipPath>
</defs>
</svg>
