<svg width="56" height="39" viewBox="0 0 56 39" fill="none" xmlns="http://www.w3.org/2000/svg">
<path d="M46.2437 23.6062L44.3312 20.7375L36.4844 11.1515C36.4844 11.1515 29.4203 8.06714 24.6343 8.2312C21.3343 8.3437 14.9453 7.19058 7.93279 12.9656C2.6781 17.2921 1.57654 22.2937 1.57654 22.2937L6.77498 25.1812L2.81404 27.8203C2.81404 27.8203 7.37029 36.1734 19.9797 37.8046C34.9281 39.7406 40.4031 31.95 43.7359 27.5953C44.0828 27.1406 46.2437 23.6062 46.2437 23.6062V23.6062Z" fill="url(#paint0_linear)"/>
<path d="M25.0281 0.951538C24.6344 1.17185 21.9578 3.38435 20.7062 4.96404C19.6 6.36091 18.4281 8.39529 18.4281 8.39529C18.4281 8.39529 24.3672 8.20779 28.6797 9.66091C32.9922 11.114 37.8578 14.2922 41.6125 18.7219C44.4953 22.1203 45.2547 23.475 45.2875 24.0984C45.3203 24.7265 42.9109 27.7594 40.2953 30.3797C38.6219 32.0531 36.9719 33.6375 32.6172 36.1406C30.5687 37.3172 28.9562 37.725 28.9562 37.725C28.9562 37.725 33.7187 38.5547 36.0484 38.5828C38.6453 38.6156 40.164 38.4281 40.3375 37.814C40.5156 37.2 37.6094 34.9969 37.6094 34.9969C37.6094 34.9969 40.7125 32.489 42.9109 29.9062C43.7828 28.8797 46.0562 25.9781 46.0562 25.9781C46.0562 25.9781 48.4844 28.5047 49.8719 29.6719C51.325 30.8906 54.7562 33.5015 55.2953 33.2812C55.914 33.0281 54.5922 29.1 53.7109 27.5203C52.8297 25.9359 50.5422 23.7797 50.5422 23.7797C50.5422 23.7797 53.4344 21.5578 54.489 19.05C55.5437 16.5422 56.35 13.2656 55.689 12.9562C55.0281 12.6469 50.6828 17.114 49.8062 17.9953C48.925 18.8765 46.5156 21.7875 46.5156 21.7875C46.5156 21.7875 44.4719 19.6406 43.989 19.0687C43.5062 18.4969 41.964 16.5609 41.964 16.5609C41.964 16.5609 38.6687 9.85779 32.7672 5.1656C28.6797 1.91716 25.0281 0.951538 25.0281 0.951538V0.951538Z" fill="#1B65A6"/>
<path d="M20.936 24.4641C20.936 25.2562 20.575 27.9047 22.9141 29.6437C25.6375 31.664 29.7344 32.0062 31.2719 31.9219C33.6344 31.7906 34.661 31.1719 34.661 31.1719C34.661 31.1719 32.2422 28.1344 27.9719 26.0672C23.7016 24 20.936 24.4641 20.936 24.4641Z" fill="#1B65A6"/>
<path d="M0.479683 22.1203C0.0765579 22.8984 0.610933 23.2547 1.93281 23.8687C3.25468 24.4828 5.275 25.2328 5.275 25.2328C5.275 25.2328 4 25.7625 3.33906 26.1984C2.67812 26.6391 1.4875 27.0844 1.80156 27.8719C2.03125 28.4531 2.59375 28.4016 3.64843 27.8297C4.70312 27.2578 7.0375 25.8047 7.07968 25.2328C7.12187 24.6609 5.575 23.7141 4.375 23.0766C2.92187 22.3078 0.939058 21.2297 0.479683 22.1203V22.1203Z" fill="#1B65A6"/>
<path d="M14.6875 20.3485C14.6875 21.2579 14.1109 22.0313 12.9719 22.1063C11.65 22.1954 11.125 21.2345 11.125 20.3251C11.125 19.4157 11.9828 18.6985 12.8172 18.6188C13.9094 18.5251 14.6875 19.4391 14.6875 20.3485Z" fill="#262D33"/>
<path d="M19.7031 21.2297C19.2578 21.2906 19.089 21.8437 19.1312 22.725C19.1734 23.6062 19.3937 24.3094 19.2625 24.7922C19.1312 25.275 17.2844 27.8297 16.9328 28.3125C16.5812 28.7953 16.1406 29.4984 16.6234 29.8969C17.1062 30.2953 17.725 29.7656 18.0765 29.4141C18.4281 29.0625 20.8047 25.9406 20.8937 25.2328C20.9828 24.5297 20.6734 22.8141 20.6312 22.4625C20.5844 22.1109 20.364 21.1406 19.7031 21.2297V21.2297Z" fill="#E0ECF3"/>
<path d="M21.9907 21.2297C21.9485 21.9797 22.8251 22.0219 23.8376 22.0219C24.761 22.0219 30.1095 22.2656 33.011 22.4156C36.1142 22.5797 40.3142 23.3297 42.1704 23.6484C43.272 23.8359 44.3267 24.0891 44.3267 23.3391C44.3267 22.6266 43.1735 22.5141 42.0392 22.2844C41.0829 22.0875 38.0267 21.2625 33.0438 20.9531C29.3079 20.7234 24.2782 20.5688 23.7063 20.6109C23.1345 20.6578 22.0329 20.5172 21.9907 21.2297V21.2297Z" fill="#E0ECF3"/>
<defs>
<linearGradient id="paint0_linear" x1="23.9092" y1="8.20589" x2="23.9092" y2="38.1093" gradientUnits="userSpaceOnUse">
<stop offset="0.079" stop-color="#1483BC"/>
<stop offset="0.189" stop-color="#1F8CC2"/>
<stop offset="0.381" stop-color="#3CA4D3"/>
<stop offset="0.585" stop-color="#62C2E8"/>
<stop offset="0.962" stop-color="#99D6EF"/>
</linearGradient>
</defs>
</svg>
