<svg width="25" height="24" viewBox="0 0 25 24" fill="none" xmlns="http://www.w3.org/2000/svg">
<rect width="25" height="23.0697" rx="2" fill="#FFE600"/>
<path d="M10.0088 11.4296H11.2711L10.6399 9.63623L10.0088 11.4296Z" fill="black"/>
<path d="M12.9582 2C6.90588 2 2 5.86802 2 10.6401C2 13.7252 4.05149 16.4353 7.13663 17.961C6.9691 18.5394 6.05768 21.6846 6.02185 21.9322C6.02185 21.9322 5.99973 22.1177 6.11984 22.1883C6.16003 22.2086 6.20394 22.2204 6.24887 22.2231C6.2938 22.2259 6.33881 22.2194 6.38115 22.2041C6.72676 22.1556 10.3851 19.5899 11.0173 19.1485C11.6604 19.2378 12.3089 19.2818 12.9582 19.2802C19.0104 19.2802 23.9163 15.4121 23.9163 10.6401C23.9163 5.86802 19.0104 2 12.9582 2ZM7.53492 9.29876C7.52122 10.521 7.54546 11.8065 7.52544 13.0098C7.51912 13.3944 7.29785 13.5092 6.9986 13.6188C6.9648 13.6308 6.92838 13.6333 6.89324 13.6262C6.55079 13.5587 6.27789 13.4365 6.26947 13.0108C6.24523 11.8086 6.27684 10.521 6.25998 9.29876C5.97022 9.28717 5.55719 9.31035 5.2885 9.29876C4.9155 9.27453 4.6563 9.03745 4.6721 8.68447C4.68791 8.33149 4.87652 8.07756 5.29482 8.07124C6.28316 8.05649 7.50753 8.05649 8.49587 8.07124C8.91733 8.07756 9.10489 8.33255 9.11753 8.68447C9.13018 9.0364 8.87519 9.27453 8.50324 9.29876C8.23772 9.31035 7.82573 9.28717 7.53492 9.29876ZM12.8454 13.5609C12.719 13.6184 12.5818 13.6482 12.4429 13.6483C12.1795 13.6483 11.9782 13.5429 11.9161 13.3691L11.6 12.5493H9.67598L9.35988 13.3691C9.29876 13.5408 9.09751 13.6483 8.83304 13.6483C8.6945 13.6483 8.55758 13.6185 8.43159 13.5609C8.25668 13.4808 8.08915 13.2595 8.28092 12.6631L9.79715 8.68237C9.86073 8.50702 9.97462 8.35432 10.1246 8.24337C10.2745 8.13242 10.4538 8.06815 10.6401 8.05859C10.8262 8.06917 11.0052 8.13396 11.155 8.24498C11.3047 8.356 11.4188 8.5084 11.483 8.68342L12.994 12.6621C13.1868 13.2595 13.0193 13.485 12.8454 13.5609ZM16.0401 13.5609H14.0118C13.8547 13.564 13.7028 13.5047 13.5893 13.3961C13.4757 13.2875 13.4098 13.1384 13.406 12.9813V8.6908C13.4127 8.52414 13.4836 8.36656 13.6039 8.25103C13.7242 8.1355 13.8845 8.07098 14.0513 8.07098C14.2181 8.07098 14.3784 8.1355 14.4987 8.25103C14.619 8.36656 14.69 8.52414 14.6967 8.6908V12.405H16.0401C16.1192 12.4002 16.1984 12.4117 16.2728 12.4386C16.3473 12.4656 16.4154 12.5075 16.4731 12.5618C16.5307 12.6161 16.5767 12.6816 16.6081 12.7543C16.6395 12.827 16.6557 12.9053 16.6557 12.9845C16.6557 13.0637 16.6395 13.142 16.6081 13.2147C16.5767 13.2874 16.5307 13.3529 16.4731 13.4072C16.4154 13.4615 16.3473 13.5034 16.2728 13.5304C16.1984 13.5573 16.1192 13.5688 16.0401 13.564V13.5609ZM20.9924 13.0846C20.9759 13.2093 20.9227 13.3263 20.8394 13.4205C20.7561 13.5148 20.6466 13.5821 20.5248 13.6137C20.4031 13.6454 20.2747 13.6401 20.156 13.5984C20.0373 13.5567 19.9338 13.4805 19.8586 13.3796L18.3761 11.4166L18.157 11.6358V13.0151C18.157 13.1827 18.0903 13.3435 17.9718 13.4621C17.8532 13.5806 17.6924 13.6473 17.5248 13.6473C17.3571 13.6473 17.1963 13.5806 17.0777 13.4621C16.9592 13.3435 16.8926 13.1827 16.8926 13.0151V8.69501C16.8926 8.52734 16.9592 8.36654 17.0777 8.24798C17.1963 8.12942 17.3571 8.06281 17.5248 8.06281C17.6924 8.06281 17.8532 8.12942 17.9718 8.24798C18.0903 8.36654 18.157 8.52734 18.157 8.69501V10.05L19.9208 8.28619C19.967 8.24053 20.0218 8.20453 20.082 8.18029C20.1423 8.15605 20.2067 8.14405 20.2717 8.145C20.4295 8.14914 20.5803 8.21145 20.6951 8.31996C20.8098 8.42848 20.8804 8.57555 20.8933 8.73294C20.899 8.80318 20.8896 8.87382 20.8658 8.94014C20.842 9.00646 20.8043 9.06694 20.7553 9.11753L19.3118 10.5579L20.868 12.6199C20.9688 12.7537 21.0124 12.9219 20.9892 13.0878L20.9924 13.0846Z" fill="black"/>
</svg>
