<svg width="22" height="22" viewBox="0 0 18 27" fill="none" xmlns="http://www.w3.org/2000/svg">
<path d="M20 11.7H18V8.1C18 4.59 14.9 1.8 11 1.8C7.1 1.8 4 4.59 4 8.1V11.7H2V8.1C2 3.6 6 0 11 0C16 0 20 3.6 20 8.1V11.7Z" fill="#BBBBBB"/>
<path d="M19 27H3C1.3 27 0 25.83 0 24.3V13.5C0 11.97 1.3 10.8 3 10.8H19C20.7 10.8 22 11.97 22 13.5V24.3C22 25.83 20.7 27 19 27ZM3 12.6C2.4 12.6 2 12.96 2 13.5V24.3C2 24.84 2.4 25.2 3 25.2H19C19.6 25.2 20 24.84 20 24.3V13.5C20 12.96 19.6 12.6 19 12.6H3Z" fill="#BBBBBB"/>
<path d="M11 18C12.1046 18 13 17.1941 13 16.2C13 15.2059 12.1046 14.4 11 14.4C9.89543 14.4 9 15.2059 9 16.2C9 17.1941 9.89543 18 11 18Z" fill="#BBBBBB"/>
<path d="M11.5 16.2H10.5L9.5 21.6H12.5L11.5 16.2Z" fill="#BBBBBB"/>
</svg>
