<svg width="91" height="36" viewBox="0 0 91 36" fill="none" xmlns="http://www.w3.org/2000/svg">
<path d="M50.3067 19.5947H44.9063V27.21C44.9063 27.9118 44.7195 28.4222 44.3458 28.7412C43.9812 29.0602 43.4207 29.2197 42.6641 29.2197C41.8985 29.2197 41.3334 29.0602 40.9688 28.7412C40.6042 28.4222 40.422 27.9118 40.422 27.21V19.5947H38.2891V18.3916H40.422V9.79199C40.1303 9.81934 39.793 9.87402 39.4102 9.95605C39.0365 10.029 38.6492 10.1383 38.2481 10.2842C37.8562 10.4209 37.4688 10.585 37.086 10.7764C36.7032 10.9678 36.3614 11.1911 36.0606 11.4463C35.7598 11.7015 35.5138 11.9886 35.3223 12.3076C35.1401 12.6175 35.0489 12.9548 35.0489 13.3193C35.0489 13.611 35.0854 13.8434 35.1583 14.0166C35.2403 14.1898 35.3315 14.3219 35.4317 14.4131C35.532 14.4951 35.6322 14.5498 35.7325 14.5771C35.8419 14.5954 35.9193 14.6045 35.9649 14.6045C36.1928 14.6045 36.3796 14.568 36.5255 14.4951C36.6713 14.4131 36.8035 14.3311 36.922 14.249C37.0404 14.1579 37.1498 14.0758 37.2501 14.0029C37.3595 13.9209 37.4825 13.8799 37.6192 13.8799C37.7286 13.8799 37.8425 13.9072 37.961 13.9619C38.0886 14.0075 38.2026 14.085 38.3028 14.1943C38.4122 14.3037 38.5033 14.4495 38.5763 14.6318C38.6492 14.805 38.6856 15.0192 38.6856 15.2744C38.6856 15.639 38.6127 15.958 38.4669 16.2314C38.3302 16.4958 38.1479 16.7145 37.92 16.8877C37.7013 17.0609 37.446 17.193 37.1544 17.2842C36.8718 17.3662 36.5893 17.4072 36.3067 17.4072C35.8692 17.4072 35.4727 17.3343 35.1173 17.1885C34.7709 17.0335 34.4747 16.8239 34.2286 16.5596C33.9825 16.2952 33.7957 15.9899 33.668 15.6436C33.5404 15.2881 33.4766 14.9053 33.4766 14.4951C33.4766 13.4287 33.7683 12.5218 34.3516 11.7744C34.9441 11.027 35.7507 10.4163 36.7716 9.94238C37.7924 9.45931 38.9818 9.1084 40.3399 8.88965C41.698 8.6709 43.1518 8.56152 44.7013 8.56152C45.3302 8.56152 45.9864 8.57064 46.67 8.58887C47.3536 8.59798 47.9962 8.61621 48.5977 8.64355C49.2084 8.6709 49.7462 8.7028 50.211 8.73926C50.6759 8.77572 51.004 8.81673 51.1954 8.8623C51.3777 8.90788 51.5235 8.95801 51.6329 9.0127C51.7423 9.06738 51.8243 9.13118 51.879 9.2041C51.9337 9.27702 51.9701 9.36361 51.9884 9.46387C52.0066 9.55501 52.0157 9.66439 52.0157 9.79199C52.0157 9.90137 52.002 10.0244 51.9747 10.1611C51.9473 10.2887 51.9063 10.4118 51.8516 10.5303C51.797 10.6396 51.7286 10.7354 51.6466 10.8174C51.5645 10.8994 51.4643 10.9404 51.3458 10.9404C51.2729 10.9404 51.1908 10.9085 51.0997 10.8447C51.0177 10.7809 50.8946 10.6989 50.7305 10.5986C50.5756 10.4984 50.3614 10.3936 50.088 10.2842C49.8236 10.1748 49.4636 10.07 49.0079 9.96973C48.5613 9.86947 48.0007 9.78743 47.3263 9.72363C46.6609 9.65983 45.8542 9.62793 44.9063 9.62793V18.3916H50.3067V19.5947ZM65.9512 24.2979C66.2793 23.4502 66.6257 22.5068 66.9902 21.4678C67.3548 20.4196 67.6875 19.3623 67.9883 18.2959C68.2982 17.2204 68.5534 16.1768 68.7539 15.165C68.9544 14.1533 69.0547 13.251 69.0547 12.458C69.0547 11.8564 69.0137 11.3551 68.9316 10.9541C68.8496 10.5531 68.7539 10.2204 68.6445 9.95605C68.5443 9.68262 68.4531 9.45931 68.3711 9.28613C68.2891 9.11296 68.248 8.95345 68.248 8.80762C68.248 8.61621 68.2982 8.45671 68.3984 8.3291C68.5078 8.19238 68.64 8.07845 68.7949 7.9873C68.9499 7.89616 69.1185 7.83236 69.3008 7.7959C69.4831 7.75033 69.6562 7.72754 69.8203 7.72754C70.1849 7.72754 70.4902 7.78223 70.7363 7.8916C70.9915 8.00098 71.1693 8.18783 71.2695 8.45215C71.3151 8.58887 71.3516 8.7347 71.3789 8.88965C71.4062 9.03548 71.4245 9.18132 71.4336 9.32715C71.4518 9.46387 71.4609 9.59603 71.4609 9.72363C71.4609 9.84212 71.4609 9.93783 71.4609 10.0107C71.4609 10.3936 71.3971 10.9176 71.2695 11.583C71.1419 12.2484 70.9688 13.0003 70.75 13.8389C70.5404 14.6774 70.2943 15.5752 70.0117 16.5322C69.7292 17.4893 69.4375 18.4554 69.1367 19.4307C68.8359 20.3968 68.5306 21.3447 68.2207 22.2744C67.9108 23.2041 67.6191 24.0654 67.3457 24.8584C67.0723 25.6423 66.8262 26.3304 66.6074 26.9229C66.3978 27.5153 66.2337 27.9574 66.1152 28.249C66.0332 28.4587 65.9284 28.6273 65.8008 28.7549C65.6823 28.8825 65.5456 28.9782 65.3906 29.042C65.2357 29.1149 65.0625 29.1605 64.8711 29.1787C64.6888 29.2061 64.4974 29.2197 64.2969 29.2197C63.9323 29.2197 63.6361 29.1833 63.4082 29.1104C63.1803 29.0374 62.9935 28.9463 62.8477 28.8369C62.7109 28.7275 62.6107 28.609 62.5469 28.4814C62.4831 28.3538 62.4329 28.2399 62.3965 28.1396L57.2148 11.8701C57.1146 11.5602 57.0098 11.3005 56.9004 11.0908C56.8001 10.8721 56.6725 10.6943 56.5176 10.5576C56.3717 10.4209 56.194 10.3206 55.9844 10.2568C55.7747 10.193 55.515 10.1611 55.2051 10.1611C54.9499 10.1611 54.6536 10.2249 54.3164 10.3525C53.9792 10.471 53.6556 10.6533 53.3457 10.8994C53.0449 11.1364 52.7897 11.4372 52.5801 11.8018C52.3704 12.1572 52.2656 12.5719 52.2656 13.0459C52.2656 13.3376 52.3021 13.57 52.375 13.7432C52.457 13.9163 52.5482 14.0485 52.6484 14.1396C52.7487 14.2217 52.849 14.2764 52.9492 14.3037C53.0586 14.3219 53.1361 14.3311 53.1816 14.3311C53.4095 14.3311 53.5964 14.2946 53.7422 14.2217C53.888 14.1396 54.0202 14.0576 54.1387 13.9756C54.2572 13.8844 54.3665 13.8024 54.4668 13.7295C54.5762 13.6475 54.6992 13.6064 54.8359 13.6064C54.9453 13.6064 55.0592 13.6338 55.1777 13.6885C55.3053 13.734 55.4193 13.8115 55.5195 13.9209C55.6289 14.0303 55.7201 14.1761 55.793 14.3584C55.8659 14.5316 55.9023 14.7458 55.9023 15.001C55.9023 15.3656 55.8294 15.68 55.6836 15.9443C55.5469 16.2087 55.3646 16.432 55.1367 16.6143C54.918 16.7874 54.6628 16.9196 54.3711 17.0107C54.0885 17.0928 53.806 17.1338 53.5234 17.1338C53.0859 17.1338 52.694 17.0563 52.3477 16.9014C52.0104 16.7464 51.7233 16.5368 51.4863 16.2725C51.2585 16.0081 51.0807 15.7028 50.9531 15.3564C50.8346 15.001 50.7754 14.6227 50.7754 14.2217C50.7754 13.2738 50.9577 12.4489 51.3223 11.7471C51.6868 11.0361 52.1699 10.4437 52.7715 9.96973C53.373 9.49577 54.0566 9.14486 54.8223 8.91699C55.5879 8.68001 56.3763 8.56152 57.1875 8.56152C58.099 8.56152 58.8464 8.7028 59.4297 8.98535C60.013 9.25879 60.4824 9.61426 60.8379 10.0518C61.2025 10.4893 61.4896 10.9814 61.6992 11.5283C61.9089 12.0661 62.0957 12.5993 62.2598 13.1279L65.9512 24.2979ZM83.6054 25.8975C83.6054 26.2894 83.651 26.6084 83.7421 26.8545C83.8424 27.0915 83.9836 27.2783 84.1659 27.415C84.3482 27.5518 84.5761 27.6475 84.8495 27.7021C85.1321 27.7477 85.4602 27.7705 85.8339 27.7705C86.4355 27.7705 86.9778 27.7113 87.4609 27.5928C87.9439 27.4652 88.3678 27.3285 88.7323 27.1826C89.0969 27.0277 89.4023 26.8864 89.6484 26.7588C89.9036 26.6312 90.0995 26.5674 90.2363 26.5674C90.4094 26.5674 90.5461 26.6221 90.6464 26.7314C90.7467 26.8408 90.7968 27.0003 90.7968 27.21C90.7968 27.5745 90.7603 27.8389 90.6874 28.0029C90.6145 28.1579 90.4641 28.2764 90.2363 28.3584C89.4068 28.6501 88.4726 28.8643 87.4335 29.001C86.3945 29.1468 85.2187 29.2197 83.9062 29.2197C82.9309 29.2197 82.1334 29.1742 81.5136 29.083C80.8938 29.001 80.4062 28.8506 80.0507 28.6318C79.6952 28.4131 79.4491 28.1169 79.3124 27.7432C79.1848 27.3604 79.121 26.8727 79.121 26.2803V10.749C79.121 10.5485 79.0982 10.389 79.0527 10.2705C79.0071 10.152 78.9433 10.0609 78.8613 9.99707C78.7792 9.92415 78.679 9.87858 78.5605 9.86035C78.4511 9.83301 78.328 9.81934 78.1913 9.81934C77.9908 9.81934 77.7402 9.85124 77.4394 9.91504C77.1477 9.97884 76.8378 10.0745 76.5097 10.2021C76.1816 10.3298 75.8489 10.4893 75.5116 10.6807C75.1835 10.863 74.8873 11.0726 74.623 11.3096C74.3678 11.5465 74.1581 11.8109 73.9941 12.1025C73.83 12.3942 73.748 12.7087 73.748 13.0459C73.748 13.3376 73.7844 13.57 73.8573 13.7432C73.9394 13.9163 74.0305 14.0485 74.1308 14.1396C74.231 14.2217 74.3313 14.2764 74.4316 14.3037C74.5409 14.3219 74.6184 14.3311 74.664 14.3311C74.8919 14.3311 75.0787 14.2946 75.2245 14.2217C75.3704 14.1396 75.5025 14.0576 75.621 13.9756C75.7395 13.8844 75.8489 13.8024 75.9491 13.7295C76.0585 13.6475 76.1816 13.6064 76.3183 13.6064C76.4277 13.6064 76.5416 13.6338 76.6601 13.6885C76.7877 13.734 76.9016 13.8115 77.0019 13.9209C77.1113 14.0303 77.2024 14.1761 77.2753 14.3584C77.3482 14.5316 77.3847 14.7458 77.3847 15.001C77.3847 15.3656 77.3118 15.68 77.1659 15.9443C77.0292 16.2087 76.8469 16.432 76.6191 16.6143C76.4003 16.7874 76.1451 16.9196 75.8534 17.0107C75.5709 17.0928 75.2883 17.1338 75.0058 17.1338C74.5683 17.1338 74.1718 17.0609 73.8163 16.915C73.47 16.7601 73.1738 16.5505 72.9277 16.2861C72.6816 16.0218 72.4947 15.7119 72.3671 15.3564C72.2395 15.001 72.1757 14.6227 72.1757 14.2217C72.1757 13.5928 72.2896 13.0186 72.5175 12.499C72.7454 11.9704 73.0553 11.4964 73.4472 11.0771C73.8482 10.6579 74.3131 10.2933 74.8417 9.9834C75.3795 9.66439 75.9583 9.40007 76.578 9.19043C77.1978 8.98079 77.845 8.82585 78.5195 8.72559C79.1939 8.61621 79.8684 8.56152 80.5429 8.56152C81.2903 8.56152 81.8691 8.63444 82.2792 8.78027C82.6985 8.91699 83.0038 9.08561 83.1952 9.28613C83.3958 9.48665 83.5142 9.69629 83.5507 9.91504C83.5872 10.1338 83.6054 10.3161 83.6054 10.4619V25.8975Z" fill="#B15500"/>
<path d="M16.5921 33.1473L16.5921 33.1473L16.5921 33.1386L16.5954 27.7553L16.0954 27.755L16.1489 27.2579C14.101 27.0374 12.1575 26.2423 10.5427 24.9642C8.92785 23.6861 7.70761 21.9772 7.02284 20.0348C6.33807 18.0925 6.21669 15.9958 6.67275 13.987C7.1288 11.9782 8.14367 10.1391 9.6002 8.6821C9.60022 8.68208 9.60023 8.68207 9.60025 8.68205L15.6583 2.624C16.1001 2.18216 16.6993 1.9339 17.324 1.9338C17.9487 1.93369 18.5477 2.18173 18.9892 2.62332L25.043 8.67706C26.4993 10.1334 27.5138 11.972 27.9694 13.9808C28.425 15.9895 28.3031 18.0863 27.6178 20.0292C26.9324 21.972 25.7116 23.6816 24.0962 24.9604C22.4808 26.2392 20.5368 27.0352 18.4887 27.2564L18.0427 27.3045L18.0424 27.7532L18.0392 33.1388L18.0391 33.1388L18.0393 33.1474C18.0409 33.2435 18.0233 33.339 17.9877 33.4282C17.952 33.5175 17.8989 33.5988 17.8314 33.6673C17.764 33.7359 17.6836 33.7903 17.5949 33.8275C17.5063 33.8646 17.4111 33.8837 17.315 33.8837C17.2189 33.8836 17.1238 33.8645 17.0352 33.8273C16.9467 33.7901 16.8664 33.7357 16.7991 33.6671C16.7318 33.5986 16.6788 33.5174 16.6433 33.4281C16.6077 33.3389 16.5903 33.2434 16.5921 33.1473ZM18.6144 25.7833L19.0462 25.7239L19.0463 25.288L19.0479 15.839C19.048 15.3817 18.8664 14.9432 18.5431 14.6198C18.2197 14.2965 17.7812 14.1149 17.3239 14.115C16.8667 14.1151 16.4281 14.2968 16.1048 14.6201C15.7815 14.9435 15.5998 15.382 15.5997 15.8392L15.5997 15.8393L15.5992 25.2895L15.5992 25.726L16.0317 25.7849C16.8887 25.9017 17.7576 25.9011 18.6144 25.7833Z" stroke="#66B700"/>
</svg>
