<svg width="185" height="37" viewBox="0 0 185 37" fill="none" xmlns="http://www.w3.org/2000/svg">
<g clip-path="url(#clip0)">
<path d="M53.043 18.9219H47.2568V27.0811C47.2568 27.833 47.0566 28.3799 46.6562 28.7217C46.2656 29.0635 45.665 29.2344 44.8545 29.2344C44.0342 29.2344 43.4287 29.0635 43.0381 28.7217C42.6475 28.3799 42.4521 27.833 42.4521 27.0811V18.9219H40.167V17.6328H42.4521V8.41895C42.1396 8.44824 41.7783 8.50684 41.3682 8.59473C40.9678 8.67285 40.5527 8.79004 40.123 8.94629C39.7031 9.09277 39.2881 9.26855 38.8779 9.47363C38.4678 9.67871 38.1016 9.91797 37.7793 10.1914C37.457 10.4648 37.1934 10.7725 36.9883 11.1143C36.793 11.4463 36.6953 11.8076 36.6953 12.1982C36.6953 12.5107 36.7344 12.7598 36.8125 12.9453C36.9004 13.1309 36.998 13.2725 37.1055 13.3701C37.2129 13.458 37.3203 13.5166 37.4277 13.5459C37.5449 13.5654 37.6279 13.5752 37.6768 13.5752C37.9209 13.5752 38.1211 13.5361 38.2773 13.458C38.4336 13.3701 38.5752 13.2822 38.7021 13.1943C38.8291 13.0967 38.9463 13.0088 39.0537 12.9307C39.1709 12.8428 39.3027 12.7988 39.4492 12.7988C39.5664 12.7988 39.6885 12.8281 39.8154 12.8867C39.9521 12.9355 40.0742 13.0186 40.1816 13.1357C40.2988 13.2529 40.3965 13.4092 40.4746 13.6045C40.5527 13.79 40.5918 14.0195 40.5918 14.293C40.5918 14.6836 40.5137 15.0254 40.3574 15.3184C40.2109 15.6016 40.0156 15.8359 39.7715 16.0215C39.5371 16.207 39.2637 16.3486 38.9512 16.4463C38.6484 16.5342 38.3457 16.5781 38.043 16.5781C37.5742 16.5781 37.1494 16.5 36.7686 16.3438C36.3975 16.1777 36.0801 15.9531 35.8164 15.6699C35.5527 15.3867 35.3525 15.0596 35.2158 14.6885C35.0791 14.3076 35.0107 13.8975 35.0107 13.458C35.0107 12.3154 35.3232 11.3438 35.9482 10.543C36.583 9.74219 37.4473 9.08789 38.541 8.58008C39.6348 8.0625 40.9092 7.68652 42.3643 7.45215C43.8193 7.21777 45.377 7.10059 47.0371 7.10059C47.7109 7.10059 48.4141 7.11035 49.1465 7.12988C49.8789 7.13965 50.5674 7.15918 51.2119 7.18848C51.8662 7.21777 52.4424 7.25195 52.9404 7.29102C53.4385 7.33008 53.79 7.37402 53.9951 7.42285C54.1904 7.47168 54.3467 7.52539 54.4639 7.58398C54.5811 7.64258 54.6689 7.71094 54.7275 7.78906C54.7861 7.86719 54.8252 7.95996 54.8447 8.06738C54.8643 8.16504 54.874 8.28223 54.874 8.41895C54.874 8.53613 54.8594 8.66797 54.8301 8.81445C54.8008 8.95117 54.7568 9.08301 54.6982 9.20996C54.6396 9.32715 54.5664 9.42969 54.4785 9.51758C54.3906 9.60547 54.2832 9.64941 54.1562 9.64941C54.0781 9.64941 53.9902 9.61523 53.8926 9.54688C53.8047 9.47852 53.6729 9.39062 53.4971 9.2832C53.3311 9.17578 53.1016 9.06348 52.8086 8.94629C52.5254 8.8291 52.1396 8.7168 51.6514 8.60938C51.1729 8.50195 50.5723 8.41406 49.8496 8.3457C49.1367 8.27734 48.2725 8.24316 47.2568 8.24316V17.6328H53.043V18.9219ZM54.5957 21.5C54.5957 20.2207 54.7812 19.1025 55.1523 18.1455C55.5234 17.1787 56.0166 16.373 56.6318 15.7285C57.2568 15.084 57.9795 14.6006 58.7998 14.2783C59.6201 13.9561 60.4795 13.7949 61.3779 13.7949C62.2764 13.7949 63.1357 13.9463 63.9561 14.249C64.7764 14.542 65.4941 14.9961 66.1094 15.6113C66.7344 16.2266 67.2324 17.0078 67.6035 17.9551C67.9746 18.8926 68.1602 20.0059 68.1602 21.2949C68.1602 22.5742 67.9746 23.707 67.6035 24.6934C67.2324 25.6797 66.7344 26.5098 66.1094 27.1836C65.4941 27.8574 64.7764 28.3701 63.9561 28.7217C63.1357 29.0635 62.2764 29.2344 61.3779 29.2344C60.4795 29.2344 59.6201 29.0732 58.7998 28.751C57.9795 28.4189 57.2568 27.9307 56.6318 27.2861C56.0166 26.6416 55.5234 25.8359 55.1523 24.8691C54.7812 23.9023 54.5957 22.7793 54.5957 21.5ZM63.6045 21.3535C63.6045 20.5723 63.5752 19.8203 63.5166 19.0977C63.4678 18.3652 63.3652 17.7158 63.209 17.1494C63.0527 16.583 62.8281 16.1338 62.5352 15.8018C62.2422 15.46 61.8564 15.2891 61.3779 15.2891C60.8994 15.2891 60.5137 15.4697 60.2207 15.8311C59.9277 16.1826 59.7031 16.6514 59.5469 17.2373C59.3906 17.8135 59.2881 18.4727 59.2393 19.2148C59.1904 19.957 59.166 20.7188 59.166 21.5C59.166 22.2812 59.1904 23.0479 59.2393 23.7998C59.2881 24.542 59.3906 25.2061 59.5469 25.792C59.7031 26.3779 59.9277 26.8516 60.2207 27.2129C60.5137 27.5645 60.8994 27.7402 61.3779 27.7402C61.8564 27.7402 62.2422 27.5547 62.5352 27.1836C62.8281 26.8125 63.0527 26.3242 63.209 25.7188C63.3652 25.1133 63.4678 24.4297 63.5166 23.668C63.5752 22.9062 63.6045 22.1348 63.6045 21.3535ZM75.5869 16.8857C75.958 16.3193 76.3535 15.8066 76.7734 15.3477C76.9492 15.1523 77.1396 14.9619 77.3447 14.7764C77.5498 14.5908 77.7598 14.4248 77.9746 14.2783C78.1992 14.1318 78.4287 14.0146 78.6631 13.9268C78.8975 13.8389 79.1318 13.7949 79.3662 13.7949C79.8643 13.7949 80.2549 13.9463 80.5381 14.249C80.8213 14.542 80.9629 14.957 80.9629 15.4941C80.9629 15.8262 80.9336 16.1484 80.875 16.4609C80.8262 16.7637 80.7236 17.1348 80.5674 17.5742H80.1572C80.0986 17.2715 79.9619 17.0225 79.7471 16.8271C79.5322 16.6221 79.2197 16.5195 78.8096 16.5195C78.5068 16.5195 78.209 16.5781 77.916 16.6953C77.623 16.8027 77.335 16.9395 77.0518 17.1055C76.7783 17.2715 76.5146 17.4521 76.2607 17.6475C76.0166 17.8428 75.792 18.0283 75.5869 18.2041V27.7109C75.5869 27.8379 75.5674 27.9893 75.5283 28.165C75.4893 28.3408 75.3916 28.5068 75.2354 28.6631C75.0889 28.8193 74.8643 28.9512 74.5615 29.0586C74.2686 29.1758 73.8633 29.2344 73.3457 29.2344C72.8281 29.2344 72.418 29.1709 72.1152 29.0439C71.8223 28.9268 71.5977 28.7852 71.4414 28.6191C71.2852 28.4531 71.1875 28.2822 71.1484 28.1064C71.1094 27.9307 71.0898 27.7891 71.0898 27.6816V16.373C71.0898 16.0898 71.0215 15.8457 70.8848 15.6406C70.7578 15.4258 70.5381 15.3184 70.2256 15.3184C70.0596 15.3184 69.918 15.3477 69.8008 15.4062C69.6836 15.4648 69.5566 15.5479 69.4199 15.6553L69.1123 15.2891C69.3369 15.1035 69.5859 14.9229 69.8594 14.7471C70.1426 14.5615 70.4453 14.4004 70.7676 14.2637C71.0898 14.127 71.4365 14.0146 71.8076 13.9268C72.1787 13.8389 72.5693 13.7949 72.9795 13.7949C73.3994 13.7949 73.7559 13.8535 74.0488 13.9707C74.3516 14.0781 74.5957 14.2246 74.7812 14.4102C74.9766 14.5859 75.1279 14.7861 75.2354 15.0107C75.3428 15.2354 75.4209 15.4648 75.4697 15.6992C75.5283 15.9238 75.5625 16.1436 75.5723 16.3584C75.582 16.5635 75.5869 16.7393 75.5869 16.8857ZM97.2666 23.9609C97.6182 23.0527 97.9893 22.042 98.3799 20.9287C98.7705 19.8057 99.127 18.6729 99.4492 17.5303C99.7812 16.3779 100.055 15.2598 100.27 14.1758C100.484 13.0918 100.592 12.125 100.592 11.2754C100.592 10.6309 100.548 10.0938 100.46 9.66406C100.372 9.23438 100.27 8.87793 100.152 8.59473C100.045 8.30176 99.9473 8.0625 99.8594 7.87695C99.7715 7.69141 99.7275 7.52051 99.7275 7.36426C99.7275 7.15918 99.7812 6.98828 99.8887 6.85156C100.006 6.70508 100.147 6.58301 100.313 6.48535C100.479 6.3877 100.66 6.31934 100.855 6.28027C101.051 6.23145 101.236 6.20703 101.412 6.20703C101.803 6.20703 102.13 6.26562 102.394 6.38281C102.667 6.5 102.857 6.7002 102.965 6.9834C103.014 7.12988 103.053 7.28613 103.082 7.45215C103.111 7.6084 103.131 7.76465 103.141 7.9209C103.16 8.06738 103.17 8.20898 103.17 8.3457C103.17 8.47266 103.17 8.5752 103.17 8.65332C103.17 9.06348 103.102 9.625 102.965 10.3379C102.828 11.0508 102.643 11.8564 102.408 12.7549C102.184 13.6533 101.92 14.6152 101.617 15.6406C101.314 16.666 101.002 17.7012 100.68 18.7461C100.357 19.7812 100.03 20.7969 99.6982 21.793C99.3662 22.7891 99.0537 23.7119 98.7607 24.5615C98.4678 25.4014 98.2041 26.1387 97.9697 26.7734C97.7451 27.4082 97.5693 27.8818 97.4424 28.1943C97.3545 28.4189 97.2422 28.5996 97.1055 28.7363C96.9785 28.873 96.832 28.9756 96.666 29.0439C96.5 29.1221 96.3145 29.1709 96.1094 29.1904C95.9141 29.2197 95.709 29.2344 95.4941 29.2344C95.1035 29.2344 94.7861 29.1953 94.542 29.1172C94.2979 29.0391 94.0977 28.9414 93.9414 28.8242C93.7949 28.707 93.6875 28.5801 93.6191 28.4434C93.5508 28.3066 93.4971 28.1846 93.458 28.0771L87.9062 10.6455C87.7988 10.3135 87.6865 10.0352 87.5693 9.81055C87.4619 9.57617 87.3252 9.38574 87.1592 9.23926C87.0029 9.09277 86.8125 8.98535 86.5879 8.91699C86.3633 8.84863 86.085 8.81445 85.7529 8.81445C85.4795 8.81445 85.1621 8.88281 84.8008 9.01953C84.4395 9.14648 84.0928 9.3418 83.7607 9.60547C83.4385 9.85938 83.165 10.1816 82.9404 10.5723C82.7158 10.9531 82.6035 11.3975 82.6035 11.9053C82.6035 12.2178 82.6426 12.4668 82.7207 12.6523C82.8086 12.8379 82.9062 12.9795 83.0137 13.0771C83.1211 13.165 83.2285 13.2236 83.3359 13.2529C83.4531 13.2725 83.5361 13.2822 83.585 13.2822C83.8291 13.2822 84.0293 13.2432 84.1855 13.165C84.3418 13.0771 84.4834 12.9893 84.6104 12.9014C84.7373 12.8037 84.8545 12.7158 84.9619 12.6377C85.0791 12.5498 85.2109 12.5059 85.3574 12.5059C85.4746 12.5059 85.5967 12.5352 85.7236 12.5938C85.8604 12.6426 85.9824 12.7256 86.0898 12.8428C86.207 12.96 86.3047 13.1162 86.3828 13.3115C86.4609 13.4971 86.5 13.7266 86.5 14C86.5 14.3906 86.4219 14.7275 86.2656 15.0107C86.1191 15.2939 85.9238 15.5332 85.6797 15.7285C85.4453 15.9141 85.1719 16.0557 84.8594 16.1533C84.5566 16.2412 84.2539 16.2852 83.9512 16.2852C83.4824 16.2852 83.0625 16.2021 82.6914 16.0361C82.3301 15.8701 82.0225 15.6455 81.7686 15.3623C81.5244 15.0791 81.334 14.752 81.1973 14.3809C81.0703 14 81.0068 13.5947 81.0068 13.165C81.0068 12.1494 81.2021 11.2656 81.5928 10.5137C81.9834 9.75195 82.501 9.11719 83.1455 8.60938C83.79 8.10156 84.5225 7.72559 85.3428 7.48145C86.1631 7.22754 87.0078 7.10059 87.877 7.10059C88.8535 7.10059 89.6543 7.25195 90.2793 7.55469C90.9043 7.84766 91.4072 8.22852 91.7881 8.69727C92.1787 9.16602 92.4863 9.69336 92.7109 10.2793C92.9355 10.8555 93.1357 11.4268 93.3115 11.9932L97.2666 23.9609ZM108.326 22.2764C108.326 22.5889 108.37 22.9307 108.458 23.3018C108.556 23.6631 108.692 24.0293 108.868 24.4004C109.044 24.7715 109.259 25.1279 109.513 25.4697C109.776 25.8018 110.074 26.0996 110.406 26.3633C110.748 26.627 111.124 26.8369 111.534 26.9932C111.944 27.1494 112.394 27.2275 112.882 27.2275C113.224 27.2275 113.541 27.1885 113.834 27.1104C114.127 27.0322 114.4 26.9248 114.654 26.7881C114.908 26.6514 115.152 26.4951 115.387 26.3193C115.621 26.1338 115.855 25.9385 116.09 25.7334L116.456 26.085C116.231 26.3877 115.943 26.7197 115.592 27.0811C115.24 27.4424 114.815 27.7842 114.317 28.1064C113.819 28.4189 113.238 28.6826 112.574 28.8975C111.91 29.1025 111.153 29.2051 110.304 29.2051C109.454 29.2051 108.624 29.0537 107.813 28.751C107.013 28.4385 106.3 27.9746 105.675 27.3594C105.05 26.7441 104.547 25.9775 104.166 25.0596C103.795 24.1416 103.609 23.0674 103.609 21.8369C103.609 20.9482 103.722 20.1328 103.946 19.3906C104.171 18.6484 104.474 17.9795 104.854 17.3838C105.245 16.7881 105.694 16.2656 106.202 15.8164C106.72 15.3672 107.262 14.9961 107.828 14.7031C108.395 14.4004 108.971 14.1758 109.557 14.0293C110.152 13.873 110.724 13.7949 111.271 13.7949C111.993 13.7949 112.623 13.873 113.16 14.0293C113.697 14.1855 114.142 14.3955 114.493 14.6592C114.854 14.9229 115.123 15.2305 115.299 15.582C115.475 15.9238 115.562 16.2852 115.562 16.666C115.562 17.125 115.431 17.54 115.167 17.9111C114.903 18.2725 114.552 18.5898 114.112 18.8633L108.326 22.2764ZM111.271 19.3027C111.397 19.2246 111.5 19.1514 111.578 19.083C111.666 19.0049 111.734 18.917 111.783 18.8193C111.832 18.7119 111.866 18.585 111.886 18.4385C111.915 18.2822 111.93 18.0918 111.93 17.8672C111.93 17.623 111.9 17.3545 111.842 17.0615C111.793 16.7588 111.705 16.4756 111.578 16.2119C111.451 15.9482 111.29 15.7285 111.095 15.5527C110.899 15.377 110.665 15.2891 110.392 15.2891C110.04 15.2891 109.737 15.3965 109.483 15.6113C109.239 15.8164 109.034 16.085 108.868 16.417C108.712 16.749 108.585 17.1299 108.487 17.5596C108.399 17.9795 108.331 18.4043 108.282 18.834C108.233 19.2637 108.204 19.6787 108.194 20.0791C108.185 20.4697 108.18 20.8018 108.18 21.0752L111.271 19.3027ZM117.511 19.7861C117.511 18.79 117.682 17.9209 118.023 17.1787C118.375 16.4268 118.844 15.8018 119.43 15.3037C120.016 14.7959 120.694 14.4199 121.466 14.1758C122.237 13.9219 123.048 13.7949 123.897 13.7949C124.747 13.7949 125.553 13.9072 126.314 14.1318C127.076 14.3564 127.75 14.7031 128.336 15.1719C128.521 14.8887 128.673 14.5908 128.79 14.2783C128.907 13.9658 128.966 13.6533 128.966 13.3408C128.966 12.9307 128.854 12.6035 128.629 12.3594C128.414 12.1152 128.136 11.9932 127.794 11.9932V11.5684C128.009 11.5 128.199 11.4414 128.365 11.3926C128.531 11.334 128.683 11.29 128.819 11.2607C128.956 11.2314 129.093 11.2119 129.229 11.2021C129.366 11.1826 129.518 11.1729 129.684 11.1729C130.143 11.1729 130.494 11.3145 130.738 11.5977C130.982 11.8809 131.104 12.2715 131.104 12.7695C131.104 13.0625 131.036 13.3555 130.899 13.6484C130.763 13.9316 130.592 14.2051 130.387 14.4688C130.182 14.7324 129.952 14.9814 129.698 15.2158C129.454 15.4502 129.22 15.6553 128.995 15.8311C129.405 16.2998 129.723 16.8467 129.947 17.4717C130.172 18.0967 130.284 18.8096 130.284 19.6104C130.284 20.6162 130.108 21.5049 129.757 22.2764C129.415 23.0479 128.951 23.6973 128.365 24.2246C127.779 24.752 127.101 25.1523 126.329 25.4258C125.558 25.6895 124.747 25.8213 123.897 25.8213C123.399 25.8213 122.911 25.7773 122.433 25.6895C121.954 25.6016 121.505 25.4746 121.085 25.3086C120.929 25.4258 120.792 25.5723 120.675 25.748C120.567 25.9238 120.514 26.1191 120.514 26.334C120.514 26.6953 120.67 26.9639 120.982 27.1396C121.295 27.3154 121.71 27.4424 122.228 27.5205C122.745 27.5986 123.331 27.6475 123.985 27.667C124.64 27.6865 125.309 27.7207 125.992 27.7695C126.686 27.8086 127.359 27.8916 128.014 28.0186C128.668 28.1357 129.254 28.3359 129.771 28.6191C130.289 28.8926 130.704 29.2686 131.017 29.7471C131.329 30.2256 131.485 30.8457 131.485 31.6074C131.485 32.1641 131.368 32.6621 131.134 33.1016C130.899 33.5508 130.582 33.9414 130.182 34.2734C129.791 34.6152 129.332 34.9033 128.805 35.1377C128.287 35.3818 127.735 35.5771 127.149 35.7236C126.573 35.8799 125.982 35.9922 125.377 36.0605C124.781 36.1289 124.21 36.1631 123.663 36.1631C122.667 36.1631 121.769 36.1094 120.968 36.002C120.177 35.9043 119.503 35.748 118.946 35.5332C118.39 35.3184 117.96 35.04 117.657 34.6982C117.354 34.3564 117.203 33.9463 117.203 33.4678C117.203 33.126 117.281 32.8086 117.438 32.5156C117.594 32.2324 117.799 31.9688 118.053 31.7246C118.316 31.4902 118.609 31.2754 118.932 31.0801C119.254 30.8945 119.581 30.7188 119.913 30.5527C119.425 30.3477 119.015 30.0352 118.683 29.6152C118.36 29.2051 118.199 28.6582 118.199 27.9746C118.199 27.6133 118.263 27.2812 118.39 26.9785C118.517 26.666 118.678 26.3828 118.873 26.1289C119.078 25.8652 119.298 25.6309 119.532 25.4258C119.776 25.2109 120.011 25.0303 120.235 24.8838C119.835 24.6494 119.464 24.3662 119.122 24.0342C118.79 23.6924 118.502 23.3115 118.258 22.8916C118.023 22.4619 117.838 21.9883 117.701 21.4707C117.574 20.9531 117.511 20.3916 117.511 19.7861ZM125.875 19.6689C125.875 19.1025 125.846 18.5508 125.787 18.0137C125.729 17.4766 125.626 16.998 125.479 16.5781C125.333 16.1582 125.133 15.8213 124.879 15.5674C124.625 15.3037 124.298 15.1719 123.897 15.1719C123.497 15.1719 123.17 15.3086 122.916 15.582C122.662 15.8457 122.462 16.1973 122.315 16.6367C122.169 17.0664 122.066 17.5596 122.008 18.1162C121.949 18.6631 121.92 19.2197 121.92 19.7861C121.92 20.3623 121.949 20.9287 122.008 21.4854C122.066 22.042 122.169 22.54 122.315 22.9795C122.462 23.4189 122.662 23.7754 122.916 24.0488C123.17 24.3125 123.497 24.4443 123.897 24.4443C124.298 24.4443 124.625 24.3027 124.879 24.0195C125.133 23.7363 125.333 23.3701 125.479 22.9209C125.626 22.4619 125.729 21.9492 125.787 21.3828C125.846 20.8164 125.875 20.2451 125.875 19.6689ZM128.102 32.7793C128.102 32.4668 127.979 32.208 127.735 32.0029C127.491 31.8076 127.169 31.6465 126.769 31.5195C126.378 31.4023 125.929 31.3096 125.421 31.2412C124.923 31.1826 124.415 31.1338 123.897 31.0947C123.38 31.0654 122.877 31.0361 122.389 31.0068C121.9 30.9775 121.476 30.9385 121.114 30.8896C120.909 31.0361 120.709 31.1924 120.514 31.3584C120.328 31.5342 120.162 31.7148 120.016 31.9004C119.879 32.0957 119.767 32.2959 119.679 32.501C119.591 32.7158 119.547 32.9307 119.547 33.1455C119.547 33.5166 119.654 33.8242 119.869 34.0684C120.084 34.3223 120.372 34.5225 120.733 34.6689C121.104 34.8154 121.529 34.918 122.008 34.9766C122.496 35.0352 123.009 35.0645 123.546 35.0645C124.259 35.0645 124.898 35.001 125.465 34.874C126.031 34.7568 126.51 34.5908 126.9 34.376C127.291 34.1709 127.589 33.9316 127.794 33.6582C127.999 33.3848 128.102 33.0918 128.102 32.7793ZM143.849 25.6748C143.849 26.0947 143.897 26.4365 143.995 26.7002C144.103 26.9541 144.254 27.1543 144.449 27.3008C144.645 27.4473 144.889 27.5498 145.182 27.6084C145.484 27.6572 145.836 27.6816 146.236 27.6816C146.881 27.6816 147.462 27.6182 147.979 27.4912C148.497 27.3545 148.951 27.208 149.342 27.0518C149.732 26.8857 150.06 26.7344 150.323 26.5977C150.597 26.4609 150.807 26.3926 150.953 26.3926C151.139 26.3926 151.285 26.4512 151.393 26.5684C151.5 26.6855 151.554 26.8564 151.554 27.0811C151.554 27.4717 151.515 27.7549 151.437 27.9307C151.358 28.0967 151.197 28.2236 150.953 28.3115C150.064 28.624 149.063 28.8535 147.95 29C146.837 29.1562 145.577 29.2344 144.171 29.2344C143.126 29.2344 142.271 29.1855 141.607 29.0879C140.943 29 140.421 28.8389 140.04 28.6045C139.659 28.3701 139.396 28.0527 139.249 27.6523C139.112 27.2422 139.044 26.7197 139.044 26.085V9.44434C139.044 9.22949 139.02 9.05859 138.971 8.93164C138.922 8.80469 138.854 8.70703 138.766 8.63867C138.678 8.56055 138.57 8.51172 138.443 8.49219C138.326 8.46289 138.194 8.44824 138.048 8.44824C137.833 8.44824 137.564 8.48242 137.242 8.55078C136.93 8.61914 136.598 8.72168 136.246 8.8584C135.895 8.99512 135.538 9.16602 135.177 9.37109C134.825 9.56641 134.508 9.79102 134.225 10.0449C133.951 10.2988 133.727 10.582 133.551 10.8945C133.375 11.207 133.287 11.5439 133.287 11.9053C133.287 12.2178 133.326 12.4668 133.404 12.6523C133.492 12.8379 133.59 12.9795 133.697 13.0771C133.805 13.165 133.912 13.2236 134.02 13.2529C134.137 13.2725 134.22 13.2822 134.269 13.2822C134.513 13.2822 134.713 13.2432 134.869 13.165C135.025 13.0771 135.167 12.9893 135.294 12.9014C135.421 12.8037 135.538 12.7158 135.646 12.6377C135.763 12.5498 135.895 12.5059 136.041 12.5059C136.158 12.5059 136.28 12.5352 136.407 12.5938C136.544 12.6426 136.666 12.7256 136.773 12.8428C136.891 12.96 136.988 13.1162 137.066 13.3115C137.145 13.4971 137.184 13.7266 137.184 14C137.184 14.3906 137.105 14.7275 136.949 15.0107C136.803 15.2939 136.607 15.5332 136.363 15.7285C136.129 15.9141 135.855 16.0557 135.543 16.1533C135.24 16.2412 134.938 16.2852 134.635 16.2852C134.166 16.2852 133.741 16.207 133.36 16.0508C132.989 15.8848 132.672 15.6602 132.408 15.377C132.145 15.0938 131.944 14.7617 131.808 14.3809C131.671 14 131.603 13.5947 131.603 13.165C131.603 12.4912 131.725 11.876 131.969 11.3193C132.213 10.7529 132.545 10.2451 132.965 9.7959C133.395 9.34668 133.893 8.95605 134.459 8.62402C135.035 8.28223 135.655 7.99902 136.319 7.77441C136.983 7.5498 137.677 7.38379 138.399 7.27637C139.122 7.15918 139.845 7.10059 140.567 7.10059C141.368 7.10059 141.988 7.17871 142.428 7.33496C142.877 7.48145 143.204 7.66211 143.409 7.87695C143.624 8.0918 143.751 8.31641 143.79 8.55078C143.829 8.78516 143.849 8.98047 143.849 9.13672V25.6748ZM157.765 27.6816C157.765 27.8086 157.74 27.9648 157.691 28.1504C157.652 28.3262 157.55 28.4971 157.384 28.6631C157.228 28.8193 156.998 28.9512 156.695 29.0586C156.393 29.1758 155.982 29.2344 155.465 29.2344C154.947 29.2344 154.542 29.1709 154.249 29.0439C153.956 28.9268 153.736 28.7852 153.59 28.6191C153.443 28.4531 153.351 28.2822 153.312 28.1064C153.282 27.9307 153.268 27.7891 153.268 27.6816V16.373C153.268 16.0898 153.199 15.8457 153.062 15.6406C152.936 15.4258 152.716 15.3184 152.403 15.3184C152.237 15.3184 152.096 15.3477 151.979 15.4062C151.861 15.4648 151.734 15.5479 151.598 15.6553L151.29 15.2891C151.515 15.1035 151.764 14.9229 152.037 14.7471C152.32 14.5615 152.623 14.4004 152.945 14.2637C153.268 14.127 153.614 14.0146 153.985 13.9268C154.356 13.8389 154.747 13.7949 155.157 13.7949C155.792 13.7949 156.285 13.8828 156.637 14.0586C156.988 14.2246 157.247 14.4346 157.413 14.6885C157.579 14.9326 157.677 15.1963 157.706 15.4795C157.745 15.7627 157.765 16.0117 157.765 16.2266V27.6816ZM152.813 10.4551C152.813 10.1816 152.872 9.92285 152.989 9.67871C153.116 9.4248 153.287 9.20508 153.502 9.01953C153.727 8.83398 153.98 8.6875 154.264 8.58008C154.557 8.47266 154.874 8.41895 155.216 8.41895C155.548 8.41895 155.855 8.47266 156.139 8.58008C156.432 8.6875 156.686 8.83398 156.9 9.01953C157.115 9.20508 157.281 9.4248 157.398 9.67871C157.525 9.92285 157.589 10.1816 157.589 10.4551C157.589 10.7383 157.525 11.002 157.398 11.2461C157.281 11.4902 157.115 11.7051 156.9 11.8906C156.686 12.0664 156.432 12.208 156.139 12.3154C155.855 12.4229 155.548 12.4766 155.216 12.4766C154.874 12.4766 154.557 12.4229 154.264 12.3154C153.98 12.208 153.727 12.0664 153.502 11.8906C153.287 11.7051 153.116 11.4902 152.989 11.2461C152.872 11.002 152.813 10.7383 152.813 10.4551ZM168.692 7.21777C168.419 7.21777 168.16 7.27637 167.916 7.39355C167.672 7.51074 167.457 7.70117 167.271 7.96484C167.096 8.21875 166.954 8.5459 166.847 8.94629C166.739 9.34668 166.686 9.83008 166.686 10.3965V14H169.894V15.0547H166.686V26.5977C166.686 27.9258 166.51 29.1514 166.158 30.2744C165.816 31.3975 165.294 32.3643 164.591 33.1748C163.888 33.9951 163.009 34.6348 161.954 35.0938C160.899 35.5527 159.669 35.7822 158.263 35.7822C157.765 35.7822 157.286 35.7383 156.827 35.6504C156.368 35.5723 155.963 35.46 155.611 35.3135C155.26 35.167 154.981 34.9912 154.776 34.7861C154.562 34.5908 154.454 34.3711 154.454 34.127C154.454 33.9512 154.479 33.7705 154.527 33.585C154.576 33.4092 154.649 33.248 154.747 33.1016C154.845 32.9551 154.967 32.833 155.113 32.7354C155.25 32.6475 155.411 32.6035 155.597 32.6035C155.704 32.6035 155.802 32.6572 155.89 32.7646C155.968 32.8721 156.051 33.0039 156.139 33.1602C156.227 33.3164 156.329 33.4873 156.446 33.6729C156.554 33.8682 156.695 34.0439 156.871 34.2002C157.047 34.3564 157.267 34.4883 157.53 34.5957C157.784 34.7031 158.097 34.7568 158.468 34.7568C158.966 34.7568 159.405 34.6543 159.786 34.4492C160.167 34.2539 160.494 33.9805 160.768 33.6289C161.041 33.2773 161.271 32.8623 161.456 32.3838C161.642 31.9053 161.788 31.3926 161.896 30.8457C162.003 30.2988 162.076 29.7275 162.115 29.1318C162.164 28.5361 162.188 27.9404 162.188 27.3447V15.0547H159.493V14H162.188V12.2861C162.188 11.4268 162.291 10.6797 162.496 10.0449C162.711 9.40039 162.989 8.85352 163.331 8.4043C163.683 7.95508 164.078 7.58887 164.518 7.30566C164.957 7.02246 165.401 6.79785 165.851 6.63184C166.31 6.46582 166.754 6.35352 167.184 6.29492C167.613 6.23633 167.989 6.20703 168.312 6.20703C169.005 6.20703 169.62 6.26074 170.157 6.36816C170.694 6.46582 171.144 6.60254 171.505 6.77832C171.866 6.94434 172.14 7.13965 172.325 7.36426C172.511 7.58887 172.604 7.81836 172.604 8.05273C172.604 8.22852 172.574 8.40918 172.516 8.59473C172.467 8.77051 172.394 8.93652 172.296 9.09277C172.198 9.23926 172.076 9.36133 171.93 9.45898C171.793 9.54688 171.637 9.59082 171.461 9.59082C171.354 9.59082 171.256 9.53223 171.168 9.41504C171.08 9.29785 170.987 9.15137 170.89 8.97559C170.792 8.7998 170.685 8.60938 170.567 8.4043C170.45 8.19922 170.304 8.00879 170.128 7.83301C169.962 7.65723 169.762 7.51074 169.527 7.39355C169.293 7.27637 169.015 7.21777 168.692 7.21777ZM174.713 22.2764C174.713 22.5889 174.757 22.9307 174.845 23.3018C174.942 23.6631 175.079 24.0293 175.255 24.4004C175.431 24.7715 175.646 25.1279 175.899 25.4697C176.163 25.8018 176.461 26.0996 176.793 26.3633C177.135 26.627 177.511 26.8369 177.921 26.9932C178.331 27.1494 178.78 27.2275 179.269 27.2275C179.61 27.2275 179.928 27.1885 180.221 27.1104C180.514 27.0322 180.787 26.9248 181.041 26.7881C181.295 26.6514 181.539 26.4951 181.773 26.3193C182.008 26.1338 182.242 25.9385 182.477 25.7334L182.843 26.085C182.618 26.3877 182.33 26.7197 181.979 27.0811C181.627 27.4424 181.202 27.7842 180.704 28.1064C180.206 28.4189 179.625 28.6826 178.961 28.8975C178.297 29.1025 177.54 29.2051 176.69 29.2051C175.841 29.2051 175.011 29.0537 174.2 28.751C173.399 28.4385 172.687 27.9746 172.062 27.3594C171.437 26.7441 170.934 25.9775 170.553 25.0596C170.182 24.1416 169.996 23.0674 169.996 21.8369C169.996 20.9482 170.108 20.1328 170.333 19.3906C170.558 18.6484 170.86 17.9795 171.241 17.3838C171.632 16.7881 172.081 16.2656 172.589 15.8164C173.106 15.3672 173.648 14.9961 174.215 14.7031C174.781 14.4004 175.357 14.1758 175.943 14.0293C176.539 13.873 177.11 13.7949 177.657 13.7949C178.38 13.7949 179.01 13.873 179.547 14.0293C180.084 14.1855 180.528 14.3955 180.88 14.6592C181.241 14.9229 181.51 15.2305 181.686 15.582C181.861 15.9238 181.949 16.2852 181.949 16.666C181.949 17.125 181.817 17.54 181.554 17.9111C181.29 18.2725 180.938 18.5898 180.499 18.8633L174.713 22.2764ZM177.657 19.3027C177.784 19.2246 177.887 19.1514 177.965 19.083C178.053 19.0049 178.121 18.917 178.17 18.8193C178.219 18.7119 178.253 18.585 178.272 18.4385C178.302 18.2822 178.316 18.0918 178.316 17.8672C178.316 17.623 178.287 17.3545 178.229 17.0615C178.18 16.7588 178.092 16.4756 177.965 16.2119C177.838 15.9482 177.677 15.7285 177.481 15.5527C177.286 15.377 177.052 15.2891 176.778 15.2891C176.427 15.2891 176.124 15.3965 175.87 15.6113C175.626 15.8164 175.421 16.085 175.255 16.417C175.099 16.749 174.972 17.1299 174.874 17.5596C174.786 17.9795 174.718 18.4043 174.669 18.834C174.62 19.2637 174.591 19.6787 174.581 20.0791C174.571 20.4697 174.566 20.8018 174.566 21.0752L177.657 19.3027Z" fill="#B15500"/>
<path d="M13.5014 29.2287L13.5017 28.7794L13.055 28.7313C10.8525 28.4942 8.76234 27.639 7.02566 26.2644C5.28899 24.8899 3.97666 23.052 3.24022 20.9631C2.50377 18.8741 2.37323 16.6193 2.8637 14.4588C3.35417 12.2984 4.44563 10.3206 6.01208 8.75362C6.01209 8.75361 6.01211 8.75359 6.01213 8.75357L12.5073 2.25836C12.9878 1.77787 13.6394 1.5079 14.3187 1.50779C14.9981 1.50767 15.6495 1.77741 16.1297 2.25763L22.6203 8.74822C24.1865 10.3144 25.2776 12.2919 25.7675 14.4522C26.2575 16.6125 26.1264 18.8676 25.3894 20.957C24.6523 23.0465 23.3393 24.885 21.602 26.2604C19.8648 27.6357 17.7741 28.4917 15.5714 28.7296L15.1254 28.7778L15.1251 29.2264L15.1216 35.0006L15.1216 35.0007L15.1217 35.0093C15.1235 35.1171 15.1038 35.2242 15.0638 35.3244C15.0238 35.4245 14.9642 35.5157 14.8885 35.5926C14.8129 35.6695 14.7227 35.7306 14.6232 35.7723C14.5237 35.814 14.4169 35.8354 14.3091 35.8354C14.2013 35.8353 14.0946 35.8138 13.9952 35.7721C13.8958 35.7304 13.8057 35.6693 13.7302 35.5924C13.6547 35.5155 13.5953 35.4243 13.5554 35.3242C13.5155 35.2241 13.496 35.117 13.4979 35.0092L13.498 35.0092L13.498 35.0005L13.5014 29.2287ZM15.6974 27.0786L16.1292 27.0192L16.1292 26.5834L16.131 16.4525C16.131 15.9718 15.9402 15.5108 15.6003 15.1709C15.2604 14.831 14.7993 14.6401 14.3187 14.6402C13.838 14.6402 13.377 14.8313 13.0371 15.1712C12.6972 15.5111 12.5062 15.9721 12.5061 16.4527L12.5061 16.4528L12.5056 26.5849L12.5056 27.0215L12.9381 27.0804C13.8536 27.2051 14.7819 27.2045 15.6974 27.0786Z" stroke="#66B700"/>
</g>
<defs>
<clipPath id="clip0">
<rect width="185" height="37" fill="white"/>
</clipPath>
</defs>
</svg>
