<svg width="276" height="45" viewBox="0 0 276 45" fill="none" xmlns="http://www.w3.org/2000/svg">
<rect width="276" height="45" rx="10" fill="white" fill-opacity="0.8"/>
<path d="M256.25 34.25L250.642 28.6325L256.25 34.25ZM253.75 21.125C253.75 23.9429 252.631 26.6454 250.638 28.638C248.645 30.6306 245.943 31.75 243.125 31.75C240.307 31.75 237.605 30.6306 235.612 28.638C233.619 26.6454 232.5 23.9429 232.5 21.125C232.5 18.3071 233.619 15.6046 235.612 13.612C237.605 11.6194 240.307 10.5 243.125 10.5C245.943 10.5 248.645 11.6194 250.638 13.612C252.631 15.6046 253.75 18.3071 253.75 21.125V21.125Z" stroke="#4B3F3F" stroke-width="2.08333" stroke-linecap="round"/>
<path d="M37.3163 25.948H34.6703V22.7H37.3163V25.948ZM40.2143 22.252H38.3943V18.724H37.3163V21.776H34.6703V18.724H33.5783V26.886H38.3943V23.19H40.2143V29.42H41.3063V17.758H40.2143V22.252ZM42.7063 17.478V30.036H43.7983V17.478H42.7063ZM47.6752 23.12H52.3092V18.64H46.4852V19.578H51.1472V22.196H46.5272V27.012H47.5632C49.7192 27.012 51.6232 26.928 53.8912 26.55L53.7792 25.612C51.5812 25.962 49.7332 26.06 47.6752 26.06V23.12ZM54.9552 17.464V30.05H56.1032V17.464H54.9552ZM67.5961 17.478V30.05H68.7441V17.478H67.5961ZM59.1821 18.542V27.012H65.0901V18.542H63.9561V21.86H60.3161V18.542H59.1821ZM60.3161 22.77H63.9561V26.074H60.3161V22.77ZM77.605 21.356V22.294H80.321V26.76H81.483V17.492H80.321V21.356H77.605ZM71.963 18.458V19.396H76.429C76.177 21.65 74.203 23.442 71.333 24.394L71.823 25.318C75.379 24.142 77.661 21.692 77.661 18.458H71.963ZM74.693 28.818V25.822H73.545V29.756H81.805V28.818H74.693ZM84.6039 18.78V19.718H89.1259C89.0839 20.488 88.9579 21.216 88.7479 21.916L83.9739 22.238L84.1699 23.246L88.3979 22.84C87.6279 24.52 86.2419 25.948 83.9179 27.096L84.5479 27.978C89.0419 25.738 90.2739 22.42 90.2739 18.78H84.6039ZM95.4819 22.574H93.4659V17.478H92.3179V30.036H93.4659V23.526H95.4819V22.574ZM98.6728 19.998H100.241V25.892C99.7088 25.92 99.1908 25.934 98.6728 25.948V19.998ZM101.291 19.998H102.327V19.074H96.5868V19.998H97.6228V25.976C97.1468 25.99 96.7268 25.99 96.3488 25.99L96.4608 26.942C98.0988 26.942 100.731 26.886 102.677 26.522L102.607 25.682C102.201 25.738 101.739 25.78 101.291 25.822V19.998ZM103.671 22.266H101.949V23.274H103.671V29.378H104.749V17.786H103.671V22.266ZM106.093 17.492V30.036H107.199V17.492H106.093Z" fill="#4B3F3F"/>
</svg>
