<svg width="65" height="65" viewBox="0 0 65 65" fill="none" xmlns="http://www.w3.org/2000/svg">
<g filter="url(#filter0_d)">
<circle cx="32.5" cy="32.5" r="22.5" fill="white"/>
</g>
<mask id="path-2-inside-1" fill="white">
<path d="M35.1692 44.3218L23.7285 32.8811L35.1692 21.4404"/>
</mask>
<path d="M33.0479 46.4431C34.2194 47.6147 36.1189 47.6147 37.2905 46.4431C38.4621 45.2715 38.4621 43.372 37.2905 42.2005L33.0479 46.4431ZM23.7285 32.8811L21.6072 30.7598C20.4356 31.9314 20.4356 33.8308 21.6072 35.0024L23.7285 32.8811ZM37.2905 23.5617C38.4621 22.3902 38.4621 20.4907 37.2905 19.3191C36.1189 18.1475 34.2194 18.1475 33.0479 19.3191L37.2905 23.5617ZM37.2905 42.2005L25.8498 30.7598L21.6072 35.0024L33.0479 46.4431L37.2905 42.2005ZM25.8498 35.0024L37.2905 23.5617L33.0479 19.3191L21.6072 30.7598L25.8498 35.0024Z" fill="#7C6D6D" mask="url(#path-2-inside-1)"/>
<defs>
<filter id="filter0_d" x="0" y="0" width="65" height="65" filterUnits="userSpaceOnUse" color-interpolation-filters="sRGB">
<feFlood flood-opacity="0" result="BackgroundImageFix"/>
<feColorMatrix in="SourceAlpha" type="matrix" values="0 0 0 0 0 0 0 0 0 0 0 0 0 0 0 0 0 0 127 0" result="hardAlpha"/>
<feMorphology radius="4" operator="dilate" in="SourceAlpha" result="effect1_dropShadow"/>
<feOffset/>
<feGaussianBlur stdDeviation="3"/>
<feComposite in2="hardAlpha" operator="out"/>
<feColorMatrix type="matrix" values="0 0 0 0 0 0 0 0 0 0 0 0 0 0 0 0 0 0 0.1 0"/>
<feBlend mode="normal" in2="BackgroundImageFix" result="effect1_dropShadow"/>
<feBlend mode="normal" in="SourceGraphic" in2="effect1_dropShadow" result="shape"/>
</filter>
</defs>
</svg>
