<svg width="27" height="23" viewBox="0 0 22 23" fill="none" xmlns="http://www.w3.org/2000/svg">
<g clip-path="url(#clip0)">
<path d="M10.9923 11.6303C11.6424 11.6303 12.2861 11.5023 12.8866 11.2535C13.4872 11.0047 14.0329 10.6401 14.4925 10.1805C14.9522 9.72083 15.3168 9.17515 15.5655 8.57458C15.8143 7.97402 15.9423 7.33034 15.9423 6.6803C15.9423 6.03026 15.8143 5.38658 15.5655 4.78602C15.3168 4.18546 14.9522 3.63977 14.4925 3.18012C14.0329 2.72047 13.4872 2.35586 12.8866 2.1071C12.2861 1.85834 11.6424 1.7303 10.9923 1.7303C9.67952 1.7303 8.42047 2.25182 7.49217 3.18012C6.56386 4.10843 6.04234 5.36748 6.04234 6.6803C6.04234 7.99312 6.56386 9.25217 7.49217 10.1805C8.42047 11.1088 9.67952 11.6303 10.9923 11.6303V11.6303ZM11 3.50402e-07C12.449 -0.000471627 13.8578 0.47587 15.0091 1.35553C16.1605 2.23519 16.9903 3.46927 17.3707 4.86738C17.7511 6.26549 17.6608 7.74991 17.1138 9.09162C16.5668 10.4333 15.5935 11.5578 14.344 12.2914C18.4008 13.5124 21.4478 16.9312 21.9945 21.1772C22.0462 21.5809 21.7459 21.9472 21.3235 21.9967C20.9022 22.0462 20.5172 21.7602 20.4655 21.3565C19.8715 16.7475 15.8796 13.277 11.0385 13.277C6.17104 13.277 2.12745 16.7541 1.53455 21.3565C1.48285 21.7602 1.09785 22.0462 0.676545 21.9967C0.254145 21.9472 -0.0461546 21.5809 0.00554543 21.1772C0.551145 16.9488 3.61465 13.5344 7.67804 12.3024C6.4248 11.5721 5.44705 10.4492 4.89597 9.10748C4.34488 7.76573 4.25117 6.2798 4.6293 4.87944C5.00744 3.47908 5.83637 2.24229 6.98793 1.36029C8.13949 0.4783 9.54953 0.000230188 11 3.50402e-07V3.50402e-07Z" fill="#BBBBBB"/>
</g>
<defs>
<clipPath id="clip0">
<rect width="22" height="22" fill="white"/>
</clipPath>
</defs>
</svg>
