<svg width="389" height="527" viewBox="0 0 389 527" fill="none" xmlns="http://www.w3.org/2000/svg">
<rect width="389" height="527" rx="10" fill="white"/>
<line x1="52" y1="79.5" x2="348" y2="79.5" stroke="#BBBBBB" stroke-opacity="0.5"/>
<path d="M143.654 51.536H141.278V62.48H142.718C145.13 62.48 147.794 62.336 150.548 61.76L150.314 59.816C147.992 60.266 145.742 60.446 143.654 60.5V51.536ZM156.074 56.216H153.752V49.952H151.376V66.512H153.752V58.178H156.074V56.216ZM162.391 51.068C159.799 51.068 157.837 52.778 157.837 55.154C157.837 57.548 159.799 59.24 162.391 59.24C164.983 59.24 166.963 57.548 166.963 55.154C166.963 52.778 164.983 51.068 162.391 51.068ZM162.391 53.102C163.669 53.102 164.641 53.858 164.641 55.154C164.641 56.45 163.669 57.206 162.391 57.206C161.113 57.206 160.141 56.45 160.141 55.154C160.141 53.858 161.113 53.102 162.391 53.102ZM168.511 49.952V66.584H170.887V49.952H168.511ZM157.441 63.218C160.303 63.218 164.191 63.182 167.755 62.462L167.611 60.752C164.119 61.274 160.051 61.292 157.135 61.292L157.441 63.218ZM187.446 57.494C184.836 56.72 183.702 54.866 183.666 52.976H186.906V51.068H177.942V52.976H181.236C181.2 55.046 180.012 57.152 177.33 58.052L178.518 59.906C180.462 59.276 181.776 57.962 182.514 56.324C183.234 57.692 184.494 58.79 186.312 59.33L187.446 57.494ZM185.196 64.73C183.072 64.73 181.938 64.28 181.938 63.344C181.938 62.39 183.072 61.94 185.196 61.94C187.302 61.94 188.436 62.39 188.436 63.344C188.436 64.28 187.302 64.73 185.196 64.73ZM185.196 60.104C181.74 60.104 179.58 61.31 179.58 63.344C179.58 65.36 181.74 66.548 185.196 66.548C188.634 66.548 190.794 65.36 190.794 63.344C190.794 61.31 188.634 60.104 185.196 60.104ZM190.614 53.786V49.97H188.238V59.816H190.614V55.73H192.81V53.786H190.614ZM208.36 57.53C204.58 56.918 202.546 54.434 202.546 52.076V50.888H200.008V52.076C200.008 54.38 197.956 56.918 194.212 57.53L195.184 59.492C198.082 58.97 200.188 57.404 201.268 55.37C202.348 57.422 204.472 58.97 207.388 59.492L208.36 57.53ZM202.474 62.678V58.97H200.098V62.678H193.852V64.586H208.864V62.678H202.474ZM227.655 54.524H218.547V52.31H227.565V50.42H216.189V56.396H227.655V54.524ZM221.805 64.748C219.591 64.748 218.457 64.37 218.457 63.506C218.457 62.642 219.591 62.246 221.805 62.246C224.019 62.246 225.153 62.642 225.153 63.506C225.153 64.37 224.019 64.748 221.805 64.748ZM221.805 60.446C218.223 60.446 216.063 61.544 216.063 63.506C216.063 65.45 218.223 66.548 221.805 66.548C225.387 66.548 227.565 65.45 227.565 63.506C227.565 61.544 225.387 60.446 221.805 60.446ZM214.371 57.548V59.492H229.365V57.548H214.371ZM232.298 63.542H241.55V66.494H243.926V61.67H232.298V63.542ZM239.336 58.844V57.656H244.16V55.856H234.854V54.776H243.818V50.294H232.478V52.094H241.478V53.102H232.514V57.656H236.96V58.844H230.642V60.734H245.654V58.844H239.336Z" fill="#966652"/>
<path d="M147.155 144.554C145.307 143.938 144.117 142.468 144.117 140.83V140.34H146.889V139.416H140.155V140.34H142.969V140.83C142.969 142.636 141.709 144.26 139.819 144.918L140.407 145.828C141.905 145.296 143.039 144.176 143.571 142.748C144.103 143.994 145.181 144.988 146.609 145.45L147.155 144.554ZM145.629 150.112C143.753 150.112 142.633 149.594 142.633 148.698C142.633 147.816 143.753 147.298 145.629 147.298C147.477 147.298 148.611 147.816 148.611 148.698C148.611 149.594 147.477 150.112 145.629 150.112ZM145.629 146.388C143.053 146.388 141.485 147.242 141.485 148.698C141.485 150.168 143.053 151.022 145.629 151.022C148.177 151.022 149.759 150.168 149.759 148.698C149.759 147.242 148.177 146.388 145.629 146.388ZM149.619 141.656V138.492H148.471V146.066H149.619V142.622H151.481V141.656H149.619ZM163.59 144.61C161.392 144.218 158.998 142.37 158.998 140.284V139.318H157.794V140.284C157.794 142.37 155.414 144.218 153.216 144.61L153.692 145.562C155.624 145.156 157.584 143.854 158.396 142.062C159.208 143.854 161.182 145.156 163.1 145.562L163.59 144.61ZM158.97 148.46V145.408H157.822V148.46H152.754V149.398H164.15V148.46H158.97ZM170.813 144.092H167.341V140.354H170.813V144.092ZM174.817 141.446V143H171.933V141.446H174.817ZM171.933 143.924H174.817V145.912H175.979V138.492H174.817V140.522H171.933V139.43H166.207V145.002H171.933V143.924ZM171.821 150.126C169.945 150.126 168.797 149.58 168.797 148.656C168.797 147.732 169.945 147.186 171.821 147.186C173.725 147.186 174.873 147.732 174.873 148.656C174.873 149.58 173.725 150.126 171.821 150.126ZM171.821 146.29C169.245 146.29 167.649 147.144 167.649 148.656C167.649 150.154 169.245 151.022 171.821 151.022C174.411 151.022 176.021 150.154 176.021 148.656C176.021 147.144 174.411 146.29 171.821 146.29ZM184.182 139.556C186.24 139.556 187.416 140.032 187.416 140.872C187.416 141.712 186.24 142.188 184.182 142.188C182.124 142.188 180.948 141.712 180.948 140.872C180.948 140.032 182.124 139.556 184.182 139.556ZM184.182 143.042C186.94 143.042 188.592 142.286 188.592 140.872C188.592 139.458 186.94 138.688 184.182 138.688C181.424 138.688 179.772 139.458 179.772 140.872C179.772 142.286 181.424 143.042 184.182 143.042ZM181.032 148.726H188.41V145.898H179.87V146.766H187.276V147.886H179.912V150.896H188.788V150H181.032V148.726ZM178.498 143.896V144.82H189.866V143.896H178.498ZM204.019 138.492V145.226H205.167V138.492H204.019ZM197.075 145.842V150.868H205.167V145.842H204.033V147.382H198.209V145.842H197.075ZM198.209 148.278H204.033V149.944H198.209V148.278ZM198.419 139.08C196.529 139.08 195.157 140.256 195.157 141.964C195.157 143.7 196.529 144.862 198.419 144.862C200.323 144.862 201.709 143.7 201.709 141.964C201.709 140.256 200.323 139.08 198.419 139.08ZM198.419 140.032C199.693 140.032 200.589 140.83 200.589 141.964C200.589 143.112 199.693 143.91 198.419 143.91C197.173 143.91 196.277 143.112 196.277 141.964C196.277 140.83 197.173 140.032 198.419 140.032ZM214.378 144.4C212.922 144.638 211.718 144.694 209.394 144.694V142.79H213.65V139.234H208.232V140.172H212.53V141.908H208.274V145.632H209.17C211.676 145.632 212.95 145.59 214.49 145.324L214.378 144.4ZM209.674 147.816H216.926V151.05H218.088V146.878H209.674V147.816ZM216.926 138.492V140.34H214.476V141.278H216.926V142.958H214.476V143.882H216.926V146.206H218.088V138.492H216.926ZM223.729 147.172C222.749 147.172 222.063 146.374 222.063 145.254C222.063 144.162 222.749 143.364 223.729 143.364C224.695 143.364 225.395 144.162 225.395 145.254C225.395 146.374 224.695 147.172 223.729 147.172ZM223.729 142.398C222.175 142.398 221.041 143.574 221.041 145.254C221.041 146.962 222.175 148.124 223.729 148.124C225.283 148.124 226.417 146.962 226.417 145.254C226.417 143.574 225.283 142.398 223.729 142.398ZM224.289 138.842H223.155V140.62H220.607V141.558H226.837V140.62H224.289V138.842ZM230.155 138.464V143.77H228.545V138.758H227.467V150.42H228.545V144.708H230.155V151.022H231.261V138.464H230.155ZM238.092 144.582C240.038 144.246 241.886 143.196 242.656 141.712C243.412 143.196 245.274 144.246 247.22 144.582L247.668 143.672C245.456 143.35 243.286 141.908 243.286 140.256V140.186H247.22V139.262H238.05V140.186H242.012V140.256C242.012 141.908 239.842 143.35 237.658 143.672L238.092 144.582ZM248.326 145.632H236.986V146.57H242.054V151.036H243.202V146.57H248.34L248.326 145.632ZM253.575 139.668H252.469V142.062C252.469 144.218 251.433 146.472 249.711 147.48L250.425 148.334C251.671 147.564 252.581 146.15 253.029 144.484C253.477 146.01 254.317 147.34 255.507 148.068L256.165 147.172C254.513 146.164 253.575 144.036 253.575 142.02V139.668ZM256.879 142.986H254.807V143.938H256.879V150.42H257.957V138.758H256.879V142.986ZM259.427 138.478V151.036H260.519V138.478H259.427ZM266.664 145.52C267.182 145.646 267.784 145.716 268.4 145.716C269.03 145.716 269.632 145.646 270.164 145.52V148.474H266.664V145.52ZM268.4 140.172C270.416 140.172 271.872 141.096 271.872 142.496C271.872 143.896 270.416 144.82 268.4 144.82C266.384 144.82 264.942 143.896 264.942 142.496C264.942 141.096 266.384 140.172 268.4 140.172ZM271.312 148.474V145.072C272.348 144.526 272.964 143.63 272.964 142.496C272.964 140.536 271.074 139.276 268.4 139.276C265.74 139.276 263.836 140.536 263.836 142.496C263.836 143.63 264.466 144.54 265.516 145.086V148.474H262.716V149.426H274.126V148.474H271.312Z" fill="#BBBBBB"/>
<path d="M65.2036 144.554C63.3556 143.938 62.1656 142.468 62.1656 140.83V140.34H64.9376V139.416H58.2036V140.34H61.0176V140.83C61.0176 142.636 59.7576 144.26 57.8676 144.918L58.4556 145.828C59.9536 145.296 61.0876 144.176 61.6196 142.748C62.1516 143.994 63.2296 144.988 64.6576 145.45L65.2036 144.554ZM63.6776 150.112C61.8016 150.112 60.6816 149.594 60.6816 148.698C60.6816 147.816 61.8016 147.298 63.6776 147.298C65.5256 147.298 66.6596 147.816 66.6596 148.698C66.6596 149.594 65.5256 150.112 63.6776 150.112ZM63.6776 146.388C61.1016 146.388 59.5336 147.242 59.5336 148.698C59.5336 150.168 61.1016 151.022 63.6776 151.022C66.2256 151.022 67.8076 150.168 67.8076 148.698C67.8076 147.242 66.2256 146.388 63.6776 146.388ZM67.6676 141.656V138.492H66.5196V146.066H67.6676V142.622H69.5296V141.656H67.6676ZM81.6385 144.61C79.4405 144.218 77.0465 142.37 77.0465 140.284V139.318H75.8425V140.284C75.8425 142.37 73.4625 144.218 71.2645 144.61L71.7405 145.562C73.6725 145.156 75.6325 143.854 76.4445 142.062C77.2565 143.854 79.2305 145.156 81.1485 145.562L81.6385 144.61ZM77.0185 148.46V145.408H75.8705V148.46H70.8025V149.398H82.1985V148.46H77.0185ZM88.8615 144.092H85.3895V140.354H88.8615V144.092ZM92.8655 141.446V143H89.9815V141.446H92.8655ZM89.9815 143.924H92.8655V145.912H94.0275V138.492H92.8655V140.522H89.9815V139.43H84.2555V145.002H89.9815V143.924ZM89.8695 150.126C87.9935 150.126 86.8455 149.58 86.8455 148.656C86.8455 147.732 87.9935 147.186 89.8695 147.186C91.7735 147.186 92.9215 147.732 92.9215 148.656C92.9215 149.58 91.7735 150.126 89.8695 150.126ZM89.8695 146.29C87.2935 146.29 85.6975 147.144 85.6975 148.656C85.6975 150.154 87.2935 151.022 89.8695 151.022C92.4595 151.022 94.0695 150.154 94.0695 148.656C94.0695 147.144 92.4595 146.29 89.8695 146.29Z" fill="#5B220A"/>
<path d="M146.934 215.582C148.88 215.246 150.728 214.196 151.498 212.712C152.254 214.196 154.116 215.246 156.062 215.582L156.51 214.672C154.298 214.35 152.128 212.908 152.128 211.256V211.186H156.062V210.262H146.892V211.186H150.854V211.256C150.854 212.908 148.684 214.35 146.5 214.672L146.934 215.582ZM157.168 216.632H145.828V217.57H150.896V222.036H152.044V217.57H157.182L157.168 216.632ZM169.529 215.61C167.331 215.218 164.937 213.37 164.937 211.284V210.318H163.733V211.284C163.733 213.37 161.353 215.218 159.155 215.61L159.631 216.562C161.563 216.156 163.523 214.854 164.335 213.062C165.147 214.854 167.121 216.156 169.039 216.562L169.529 215.61ZM164.909 219.46V216.408H163.761V219.46H158.693V220.398H170.089V219.46H164.909ZM180.364 211.676H173.028V214.364H181.722V213.538H174.162V212.46H181.498V209.842H173V210.654H180.364V211.676ZM174.092 219.88H181.54V217.206H172.93V218.032H180.406V219.082H172.958V221.868H181.932V221.042H174.092V219.88ZM171.572 215.316V216.184H182.954V215.316H171.572ZM197.962 213.328H190.5V210.906H197.878V209.982H189.352V214.252H197.962V213.328ZM193.594 221.126C191.62 221.126 190.458 220.636 190.458 219.754C190.458 218.872 191.62 218.382 193.594 218.382C195.568 218.382 196.73 218.872 196.73 219.754C196.73 220.636 195.554 221.126 193.594 221.126ZM193.594 217.486C190.92 217.486 189.296 218.298 189.296 219.754C189.296 221.21 190.92 222.022 193.594 222.022C196.268 222.022 197.892 221.21 197.892 219.754C197.892 218.298 196.268 217.486 193.594 217.486ZM187.924 215.456V216.408H199.292V215.456H187.924ZM202.063 219.222H209.651V221.924H210.799V218.284H202.063V219.222ZM207.075 216.38V215.064H210.995V214.168H203.393V212.852H210.729V209.8H202.231V210.696H209.595V211.998H202.259V215.064H205.913V216.38H200.789V217.318H212.185V216.38H207.075ZM216.789 218.172C215.809 218.172 215.123 217.374 215.123 216.254C215.123 215.162 215.809 214.364 216.789 214.364C217.755 214.364 218.455 215.162 218.455 216.254C218.455 217.374 217.755 218.172 216.789 218.172ZM216.789 213.398C215.235 213.398 214.101 214.574 214.101 216.254C214.101 217.962 215.235 219.124 216.789 219.124C218.343 219.124 219.477 217.962 219.477 216.254C219.477 214.574 218.343 213.398 216.789 213.398ZM217.349 209.842H216.215V211.62H213.667V212.558H219.897V211.62H217.349V209.842ZM223.215 209.464V214.77H221.605V209.758H220.527V221.42H221.605V215.708H223.215V222.022H224.321V209.464H223.215ZM231.153 215.582C233.099 215.246 234.947 214.196 235.717 212.712C236.473 214.196 238.335 215.246 240.281 215.582L240.729 214.672C238.517 214.35 236.347 212.908 236.347 211.256V211.186H240.281V210.262H231.111V211.186H235.073V211.256C235.073 212.908 232.903 214.35 230.719 214.672L231.153 215.582ZM241.387 216.632H230.047V217.57H235.115V222.036H236.263V217.57H241.401L241.387 216.632ZM246.636 210.668H245.53V213.062C245.53 215.218 244.494 217.472 242.772 218.48L243.486 219.334C244.732 218.564 245.642 217.15 246.09 215.484C246.538 217.01 247.378 218.34 248.568 219.068L249.226 218.172C247.574 217.164 246.636 215.036 246.636 213.02V210.668ZM249.94 213.986H247.868V214.938H249.94V221.42H251.018V209.758H249.94V213.986ZM252.488 209.478V222.036H253.58V209.478H252.488ZM259.725 216.52C260.243 216.646 260.845 216.716 261.461 216.716C262.091 216.716 262.693 216.646 263.225 216.52V219.474H259.725V216.52ZM261.461 211.172C263.477 211.172 264.933 212.096 264.933 213.496C264.933 214.896 263.477 215.82 261.461 215.82C259.445 215.82 258.003 214.896 258.003 213.496C258.003 212.096 259.445 211.172 261.461 211.172ZM264.373 219.474V216.072C265.409 215.526 266.025 214.63 266.025 213.496C266.025 211.536 264.135 210.276 261.461 210.276C258.801 210.276 256.897 211.536 256.897 213.496C256.897 214.63 257.527 215.54 258.577 216.086V219.474H255.777V220.426H267.187V219.474H264.373Z" fill="#BBBBBB"/>
<path d="M61.9791 208.018C63.1971 208.018 64.0651 208.676 64.0651 209.656C64.0651 210.636 63.1971 211.294 61.9791 211.294C60.7471 211.294 59.8791 210.636 59.8791 209.656C59.8791 208.676 60.7471 208.018 61.9791 208.018ZM61.9791 212.232C63.8411 212.232 65.1711 211.182 65.1711 209.656C65.1711 208.116 63.8411 207.066 61.9791 207.066C60.1031 207.066 58.7731 208.116 58.7731 209.656C58.7731 211.182 60.1031 212.232 61.9791 212.232ZM66.1091 212.848C63.3511 213.268 60.1731 213.296 57.8351 213.296L57.9891 214.262C59.0251 214.262 60.2151 214.248 61.4611 214.192V218.644H62.6091V214.122C63.7991 214.052 65.0171 213.912 66.2071 213.702L66.1091 212.848ZM67.0191 206.492V219.05H68.1671V206.492H67.0191ZM75.362 209.572H78.232V208.648H75.376V206.702H74.214V208.648H71.316V209.572H74.228V210.538C74.228 212.736 72.842 214.85 70.98 215.732L71.624 216.6C73.066 215.9 74.256 214.472 74.816 212.722C75.39 214.374 76.58 215.732 78.022 216.39L78.652 215.494C76.79 214.682 75.362 212.638 75.362 210.538V209.572ZM79.87 206.464V219.022H81.032V206.464H79.87Z" fill="#5B220A"/>
<path d="M133.507 276.754H135.873V275.816H133.521V273.94H132.415V275.816H130.049V276.754H132.415V277.328C132.415 279.386 131.435 281.57 129.741 282.564L130.427 283.432C131.659 282.704 132.541 281.304 132.975 279.708C133.437 281.206 134.319 282.466 135.551 283.152L136.209 282.298C134.529 281.374 133.507 279.33 133.507 277.328V276.754ZM139.457 273.478V278.546H137.805V273.758H136.727V285.42H137.805V279.498H139.457V286.036H140.563V273.478H139.457ZM150.306 279.386C148.444 278.742 147.156 277.104 147.156 275.298V274.066H146.008V275.298C146.008 277.174 144.734 278.924 142.844 279.61L143.432 280.52C144.902 279.96 146.05 278.798 146.596 277.314C147.156 278.7 148.29 279.778 149.732 280.296L150.306 279.386ZM144.636 282.606H151.888V286.05H153.036V281.682H144.636V282.606ZM151.888 273.492V281.038H153.036V273.492H151.888ZM160.778 279.064H165.202V278.14H160.778V275.55H165.482V274.612H159.63V283.012H160.61C162.976 283.012 164.6 282.928 166.532 282.592L166.42 281.668C164.572 281.976 163.004 282.074 160.778 282.074V279.064ZM170.816 278.518H168.744V273.478H167.596V286.022H168.744V279.484H170.816V278.518ZM181.119 273.492V280.226H182.267V273.492H181.119ZM174.175 280.842V285.868H182.267V280.842H181.133V282.382H175.309V280.842H174.175ZM175.309 283.278H181.133V284.944H175.309V283.278ZM175.519 274.08C173.629 274.08 172.257 275.256 172.257 276.964C172.257 278.7 173.629 279.862 175.519 279.862C177.423 279.862 178.809 278.7 178.809 276.964C178.809 275.256 177.423 274.08 175.519 274.08ZM175.519 275.032C176.793 275.032 177.689 275.83 177.689 276.964C177.689 278.112 176.793 278.91 175.519 278.91C174.273 278.91 173.377 278.112 173.377 276.964C173.377 275.83 174.273 275.032 175.519 275.032ZM190.512 274.556C192.57 274.556 193.746 275.032 193.746 275.872C193.746 276.712 192.57 277.188 190.512 277.188C188.454 277.188 187.278 276.712 187.278 275.872C187.278 275.032 188.454 274.556 190.512 274.556ZM190.512 278.042C193.27 278.042 194.922 277.286 194.922 275.872C194.922 274.458 193.27 273.688 190.512 273.688C187.754 273.688 186.102 274.458 186.102 275.872C186.102 277.286 187.754 278.042 190.512 278.042ZM187.362 283.726H194.74V280.898H186.2V281.766H193.606V282.886H186.242V285.896H195.118V285H187.362V283.726ZM184.828 278.896V279.82H196.196V278.896H184.828ZM210.349 273.492V280.226H211.497V273.492H210.349ZM203.405 280.842V285.868H211.497V280.842H210.363V282.382H204.539V280.842H203.405ZM204.539 283.278H210.363V284.944H204.539V283.278ZM204.749 274.08C202.859 274.08 201.487 275.256 201.487 276.964C201.487 278.7 202.859 279.862 204.749 279.862C206.653 279.862 208.039 278.7 208.039 276.964C208.039 275.256 206.653 274.08 204.749 274.08ZM204.749 275.032C206.023 275.032 206.919 275.83 206.919 276.964C206.919 278.112 206.023 278.91 204.749 278.91C203.503 278.91 202.607 278.112 202.607 276.964C202.607 275.83 203.503 275.032 204.749 275.032ZM220.708 279.4C219.252 279.638 218.048 279.694 215.724 279.694V277.79H219.98V274.234H214.562V275.172H218.86V276.908H214.604V280.632H215.5C218.006 280.632 219.28 280.59 220.82 280.324L220.708 279.4ZM216.004 282.816H223.256V286.05H224.418V281.878H216.004V282.816ZM223.256 273.492V275.34H220.806V276.278H223.256V277.958H220.806V278.882H223.256V281.206H224.418V273.492H223.256ZM230.059 282.172C229.079 282.172 228.393 281.374 228.393 280.254C228.393 279.162 229.079 278.364 230.059 278.364C231.025 278.364 231.725 279.162 231.725 280.254C231.725 281.374 231.025 282.172 230.059 282.172ZM230.059 277.398C228.505 277.398 227.371 278.574 227.371 280.254C227.371 281.962 228.505 283.124 230.059 283.124C231.613 283.124 232.747 281.962 232.747 280.254C232.747 278.574 231.613 277.398 230.059 277.398ZM230.619 273.842H229.485V275.62H226.937V276.558H233.167V275.62H230.619V273.842ZM236.485 273.464V278.77H234.875V273.758H233.797V285.42H234.875V279.708H236.485V286.022H237.591V273.464H236.485ZM244.423 279.582C246.369 279.246 248.217 278.196 248.987 276.712C249.743 278.196 251.605 279.246 253.551 279.582L253.999 278.672C251.787 278.35 249.617 276.908 249.617 275.256V275.186H253.551V274.262H244.381V275.186H248.343V275.256C248.343 276.908 246.173 278.35 243.989 278.672L244.423 279.582ZM254.657 280.632H243.317V281.57H248.385V286.036H249.533V281.57H254.671L254.657 280.632ZM259.905 274.668H258.799V277.062C258.799 279.218 257.763 281.472 256.041 282.48L256.755 283.334C258.001 282.564 258.911 281.15 259.359 279.484C259.807 281.01 260.647 282.34 261.837 283.068L262.495 282.172C260.843 281.164 259.905 279.036 259.905 277.02V274.668ZM263.209 277.986H261.137V278.938H263.209V285.42H264.287V273.758H263.209V277.986ZM265.757 273.478V286.036H266.849V273.478H265.757ZM272.994 280.52C273.512 280.646 274.114 280.716 274.73 280.716C275.36 280.716 275.962 280.646 276.494 280.52V283.474H272.994V280.52ZM274.73 275.172C276.746 275.172 278.202 276.096 278.202 277.496C278.202 278.896 276.746 279.82 274.73 279.82C272.714 279.82 271.272 278.896 271.272 277.496C271.272 276.096 272.714 275.172 274.73 275.172ZM277.642 283.474V280.072C278.678 279.526 279.294 278.63 279.294 277.496C279.294 275.536 277.404 274.276 274.73 274.276C272.07 274.276 270.166 275.536 270.166 277.496C270.166 278.63 270.796 279.54 271.846 280.086V283.474H269.046V284.426H280.456V283.474H277.642ZM282.182 284.337C282.182 284.118 282.245 283.936 282.373 283.79C282.505 283.644 282.701 283.571 282.961 283.571C283.221 283.571 283.417 283.644 283.549 283.79C283.686 283.936 283.754 284.118 283.754 284.337C283.754 284.547 283.686 284.722 283.549 284.863C283.417 285.005 283.221 285.075 282.961 285.075C282.701 285.075 282.505 285.005 282.373 284.863C282.245 284.722 282.182 284.547 282.182 284.337Z" fill="#BBBBBB"/>
<path d="M59.5571 279.064H63.9811V278.14H59.5571V275.55H64.2611V274.612H58.4091V283.012H59.3891C61.7551 283.012 63.3791 282.928 65.3111 282.592L65.1991 281.668C63.3511 281.976 61.7831 282.074 59.5571 282.074V279.064ZM69.5951 278.518H67.5231V273.478H66.3751V286.022H67.5231V279.484H69.5951V278.518ZM79.898 273.492V280.226H81.046V273.492H79.898ZM72.954 280.842V285.868H81.046V280.842H79.912V282.382H74.088V280.842H72.954ZM74.088 283.278H79.912V284.944H74.088V283.278ZM74.298 274.08C72.408 274.08 71.036 275.256 71.036 276.964C71.036 278.7 72.408 279.862 74.298 279.862C76.202 279.862 77.588 278.7 77.588 276.964C77.588 275.256 76.202 274.08 74.298 274.08ZM74.298 275.032C75.572 275.032 76.468 275.83 76.468 276.964C76.468 278.112 75.572 278.91 74.298 278.91C73.052 278.91 72.156 278.112 72.156 276.964C72.156 275.83 73.052 275.032 74.298 275.032Z" fill="#5B220A"/>
<rect x="46.5" y="188.5" width="299" height="48" rx="9.5" stroke="#966652" stroke-opacity="0.5"/>
<rect x="46.5" y="256.5" width="299" height="48" rx="9.5" stroke="#966652" stroke-opacity="0.5"/>
<path d="M59.5211 349.752H56.8891V343.844H59.5211V349.752ZM62.4471 346.21H60.5851V342.934H55.8111V350.662H60.5851V347.162H62.4471V353.406H63.5391V341.758H62.4471V346.21ZM64.9391 341.478V354.022H66.0311V341.478H64.9391ZM78.252 345.72H70.832V342.122H69.684V346.644H78.252V345.72ZM79.596 348.45H68.242V349.402H71.182V354.036H72.316V349.402H75.508V354.036H76.656V349.402H79.596V348.45Z" fill="#5B220A"/>
<rect x="46.5" y="324.5" width="143" height="48" rx="9.5" stroke="#966652" stroke-opacity="0.5"/>
<path d="M222.035 342.822V343.774H226.641C226.375 346.742 224.653 349.15 221.447 350.76L222.077 351.656C226.137 349.626 227.775 346.392 227.775 342.822H222.035ZM233.039 346.574H231.023V341.478H229.875V354.036H231.023V347.526H233.039V346.574ZM236.188 350.452H243.426V354.008H244.588V349.528H236.188V350.452ZM243.426 341.478V343.718H240.654C240.766 343.27 240.822 342.794 240.822 342.318H235.082V343.256H239.59C239.366 345.398 237.462 347.064 234.424 347.89L234.886 348.814C237.574 348.058 239.52 346.63 240.36 344.656H243.426V346.378H240.178V347.316H243.426V348.968H244.588V341.478H243.426Z" fill="#5B220A"/>
<rect x="206.5" y="324.5" width="139" height="48" rx="9.5" stroke="#966652" stroke-opacity="0.5"/>
<rect x="46.5" y="120.5" width="299" height="48" rx="9.5" stroke="#966652" stroke-opacity="0.5"/>
<rect x="138" y="456" width="115" height="33" rx="6" fill="#76BE00"/>
<path d="M194.842 468.855H186.847V466.26H194.752V465.27H185.617V469.845H194.842V468.855ZM190.162 477.21C188.047 477.21 186.802 476.685 186.802 475.74C186.802 474.795 188.047 474.27 190.162 474.27C192.277 474.27 193.522 474.795 193.522 475.74C193.522 476.685 192.262 477.21 190.162 477.21ZM190.162 473.31C187.297 473.31 185.557 474.18 185.557 475.74C185.557 477.3 187.297 478.17 190.162 478.17C193.027 478.17 194.767 477.3 194.767 475.74C194.767 474.18 193.027 473.31 190.162 473.31ZM184.087 471.135V472.155H196.267V471.135H184.087ZM199.011 475.17H207.141V478.065H208.371V474.165H199.011V475.17ZM204.381 472.125V470.715H208.581V469.755H200.436V468.345H208.296V465.075H199.191V466.035H207.081V467.43H199.221V470.715H203.136V472.125H197.646V473.13H209.856V472.125H204.381Z" fill="white"/>
<path d="M358.5 16.0835C356.439 16.0835 354.426 16.6944 352.712 17.839C350.999 18.9836 349.664 20.6105 348.876 22.5139C348.088 24.4173 347.881 26.5117 348.283 28.5324C348.685 30.553 349.677 32.4091 351.134 33.8659C352.591 35.3227 354.447 36.3147 356.467 36.7167C358.488 37.1186 360.583 36.9123 362.486 36.1239C364.389 35.3355 366.016 34.0004 367.161 32.2874C368.305 30.5743 368.916 28.5604 368.916 26.5002C368.916 25.1322 368.647 23.7777 368.123 22.5139C367.6 21.2501 366.833 20.1017 365.865 19.1345C364.898 18.1672 363.75 17.3999 362.486 16.8764C361.222 16.3529 359.868 16.0835 358.5 16.0835ZM358.5 34.8335C356.852 34.8335 355.24 34.3448 353.87 33.4291C352.5 32.5134 351.431 31.2119 350.801 29.6892C350.17 28.1665 350.005 26.4909 350.326 24.8744C350.648 23.2579 351.442 21.773 352.607 20.6076C353.773 19.4422 355.257 18.6485 356.874 18.327C358.49 18.0054 360.166 18.1704 361.689 18.8012C363.211 19.4319 364.513 20.5 365.429 21.8704C366.344 23.2408 366.833 24.852 366.833 26.5002C366.833 28.7103 365.955 30.8299 364.392 32.3927C362.829 33.9555 360.71 34.8335 358.5 34.8335Z" fill="#7CB700"/>
<path d="M361.322 23.6773C361.225 23.5796 361.11 23.5021 360.983 23.4493C360.856 23.3964 360.72 23.3691 360.583 23.3691C360.445 23.3691 360.309 23.3964 360.182 23.4493C360.055 23.5021 359.94 23.5796 359.843 23.6773L358.499 25.0314L357.155 23.6773C356.959 23.4811 356.693 23.3709 356.416 23.3709C356.138 23.3709 355.872 23.4811 355.676 23.6773C355.48 23.8734 355.37 24.1394 355.37 24.4168C355.37 24.6942 355.48 24.9603 355.676 25.1564L357.03 26.5002L355.676 27.8439C355.579 27.9408 355.501 28.056 355.448 28.1829C355.395 28.3098 355.368 28.446 355.368 28.5835C355.368 28.721 355.395 28.8572 355.448 28.9841C355.501 29.1111 355.579 29.2263 355.676 29.3231C355.773 29.4207 355.888 29.4982 356.015 29.5511C356.142 29.604 356.278 29.6312 356.416 29.6312C356.553 29.6312 356.69 29.604 356.816 29.5511C356.943 29.4982 357.059 29.4207 357.155 29.3231L358.499 27.9689L359.843 29.3231C359.94 29.4207 360.055 29.4982 360.182 29.5511C360.309 29.604 360.445 29.6312 360.583 29.6312C360.72 29.6312 360.856 29.604 360.983 29.5511C361.11 29.4982 361.225 29.4207 361.322 29.3231C361.42 29.2263 361.497 29.1111 361.55 28.9841C361.603 28.8572 361.63 28.721 361.63 28.5835C361.63 28.446 361.603 28.3098 361.55 28.1829C361.497 28.056 361.42 27.9408 361.322 27.8439L359.968 26.5002L361.322 25.1564C361.42 25.0596 361.497 24.9444 361.55 24.8174C361.603 24.6905 361.63 24.5544 361.63 24.4168C361.63 24.2793 361.603 24.1432 361.55 24.0162C361.497 23.8893 361.42 23.7741 361.322 23.6773Z" fill="#7CB700"/>
</svg>
