<svg width="441" height="314" viewBox="0 0 441 314" fill="none" xmlns="http://www.w3.org/2000/svg">
<rect width="441" height="314" rx="10" fill="white"/>
<path d="M201.976 38.698H196.45V36.952H194.074V38.698H188.494V40.552H201.976V38.698ZM198.484 44.062C198.484 44.8 197.422 45.142 195.262 45.142C193.102 45.142 192.058 44.8 192.058 44.062C192.058 43.288 193.102 42.964 195.262 42.964C197.422 42.964 198.484 43.288 198.484 44.062ZM189.592 44.062C189.592 45.88 191.716 46.906 195.262 46.906C198.808 46.906 200.95 45.88 200.95 44.062C200.95 42.226 198.808 41.2 195.262 41.2C191.716 41.2 189.592 42.226 189.592 44.062ZM202.786 47.698H187.774V49.606H194.074V53.566H196.45V49.606H202.786V47.698ZM204.981 38.68V40.57H210.507C210.165 44.242 208.329 46.834 204.099 48.868L205.341 50.74C211.227 47.896 212.937 43.756 212.937 38.68H204.981ZM215.475 36.952V53.53H217.869V36.952H215.475ZM230.251 44.548C227.641 43.702 226.507 41.74 226.453 39.832H229.693V37.942H220.729V39.832H224.023C223.969 41.884 222.799 43.954 220.099 44.836L221.341 46.69C223.249 46.06 224.545 44.782 225.283 43.18C226.003 44.638 227.245 45.808 229.045 46.384L230.251 44.548ZM222.331 49.588H231.025V53.566H233.401V47.698H222.331V49.588ZM235.597 40.966H233.401V36.97H231.025V46.96H233.401V42.928H235.597V40.966ZM248.124 46.69H250.5V36.97H248.124V39.994H245.1V41.92H248.124V46.69ZM246.612 44.296C243.984 43.45 242.904 41.434 242.904 39.202V37.834H240.492V39.31C240.492 41.596 239.322 43.846 236.496 44.746L237.738 46.654C239.7 45.988 241.014 44.656 241.752 42.964C242.454 44.44 243.624 45.574 245.37 46.168L246.612 44.296ZM244.902 51.73C242.724 51.73 241.59 51.28 241.59 50.344C241.59 49.39 242.724 48.94 244.902 48.94C247.062 48.94 248.196 49.39 248.196 50.344C248.196 51.28 247.062 51.73 244.902 51.73ZM244.902 47.104C241.374 47.104 239.214 48.292 239.214 50.344C239.214 52.36 241.374 53.548 244.902 53.548C248.412 53.548 250.572 52.36 250.572 50.344C250.572 48.292 248.412 47.104 244.902 47.104Z" fill="#966652"/>
<rect x="36.75" y="119.75" width="368.5" height="114.5" rx="9.25" stroke="#966652" stroke-opacity="0.5" stroke-width="1.5"/>
<path d="M59.575 168.655V182.14H60.805V168.655H59.575ZM53.71 169.69C51.715 169.69 50.29 171.52 50.29 174.385C50.29 177.25 51.715 179.08 53.71 179.08C55.705 179.08 57.13 177.25 57.13 174.385C57.13 171.52 55.705 169.69 53.71 169.69ZM53.71 170.8C55.015 170.8 55.945 172.21 55.945 174.385C55.945 176.575 55.015 177.985 53.71 177.985C52.39 177.985 51.46 176.575 51.46 174.385C51.46 172.21 52.39 170.8 53.71 170.8ZM74.6645 175.165C72.6845 174.505 71.4095 172.93 71.4095 171.175V170.65H74.3795V169.66H67.1645V170.65H70.1795V171.175C70.1795 173.11 68.8295 174.85 66.8045 175.555L67.4345 176.53C69.0395 175.96 70.2545 174.76 70.8245 173.23C71.3945 174.565 72.5495 175.63 74.0795 176.125L74.6645 175.165ZM73.0295 181.12C71.0195 181.12 69.8195 180.565 69.8195 179.605C69.8195 178.66 71.0195 178.105 73.0295 178.105C75.0095 178.105 76.2245 178.66 76.2245 179.605C76.2245 180.565 75.0095 181.12 73.0295 181.12ZM73.0295 177.13C70.2695 177.13 68.5895 178.045 68.5895 179.605C68.5895 181.18 70.2695 182.095 73.0295 182.095C75.7595 182.095 77.4545 181.18 77.4545 179.605C77.4545 178.045 75.7595 177.13 73.0295 177.13ZM77.3045 172.06V168.67H76.0745V176.785H77.3045V173.095H79.2995V172.06H77.3045ZM92.0484 175.225C89.6934 174.805 87.1284 172.825 87.1284 170.59V169.555H85.8384V170.59C85.8384 172.825 83.2884 174.805 80.9334 175.225L81.4434 176.245C83.5134 175.81 85.6134 174.415 86.4834 172.495C87.3534 174.415 89.4684 175.81 91.5234 176.245L92.0484 175.225ZM87.0984 179.35V176.08H85.8684V179.35H80.4384V180.355H92.6484V179.35H87.0984ZM104.797 172.705H96.8772V169.15H95.6472V173.71H104.797V172.705ZM96.7872 177.85H95.5572V181.78H104.872V180.775H96.7872V177.85ZM93.9972 175.51V176.5H106.192V175.51H93.9972ZM114.682 177.985C113.392 177.985 112.492 176.575 112.492 174.385C112.492 172.21 113.392 170.8 114.682 170.8C115.957 170.8 116.857 172.21 116.857 174.385C116.857 176.575 115.957 177.985 114.682 177.985ZM120.937 168.655V173.785H118.012C117.817 171.265 116.497 169.69 114.682 169.69C112.717 169.69 111.322 171.52 111.322 174.385C111.322 177.25 112.717 179.08 114.682 179.08C116.557 179.08 117.892 177.43 118.012 174.79H120.937V182.14H122.167V168.655H120.937ZM126.276 171.01H128.376V170.02H125.061V178.645H125.646C126.516 178.645 127.446 178.63 128.586 178.375L128.451 177.355C127.656 177.535 126.921 177.595 126.276 177.625V171.01ZM130.326 171.01H132.756V170.02H129.111V178.645H129.786C131.196 178.645 132.201 178.615 133.416 178.33L133.296 177.31C132.306 177.55 131.406 177.61 130.326 177.625V171.01ZM134.646 168.67V173.575H132.081V174.58H134.646V182.095H135.876V168.67H134.646ZM148.069 176.545H149.314V168.655H148.069V170.26H145.414V171.265H148.069V172.915H145.414V173.92H148.069V176.545ZM146.044 175.075C144.109 174.325 142.789 172.48 142.789 170.53V169.135H141.574V170.53C141.574 172.66 140.284 174.505 138.244 175.285L138.919 176.275C140.464 175.63 141.634 174.4 142.204 172.81C142.789 174.28 143.914 175.45 145.354 176.035L146.044 175.075ZM147.844 177.025H146.644V177.64C146.644 178.69 146.014 180.055 144.739 180.865C143.479 180.13 142.864 178.84 142.864 177.64V177.025H141.679V177.64C141.679 178.945 140.674 180.4 138.964 181.03L139.579 181.945C140.839 181.45 141.769 180.52 142.249 179.44C142.654 180.565 143.464 181.555 144.754 182.065C145.999 181.525 146.809 180.49 147.229 179.395C147.679 180.535 148.639 181.45 149.944 181.945L150.559 181.03C148.834 180.445 147.844 179.035 147.844 177.64V177.025ZM153.558 169.96H152.343V178.705H153.408C155.463 178.705 157.518 178.555 159.813 178.09L159.663 177.07C157.488 177.505 155.493 177.67 153.558 177.67V169.96ZM164.313 174.025H162.153V168.655H160.923V182.11H162.153V175.045H164.313V174.025ZM169.592 176.2C170.147 176.335 170.792 176.41 171.452 176.41C172.127 176.41 172.772 176.335 173.342 176.2V179.365H169.592V176.2ZM171.452 170.47C173.612 170.47 175.172 171.46 175.172 172.96C175.172 174.46 173.612 175.45 171.452 175.45C169.292 175.45 167.747 174.46 167.747 172.96C167.747 171.46 169.292 170.47 171.452 170.47ZM174.572 179.365V175.72C175.682 175.135 176.342 174.175 176.342 172.96C176.342 170.86 174.317 169.51 171.452 169.51C168.602 169.51 166.562 170.86 166.562 172.96C166.562 174.175 167.237 175.15 168.362 175.735V179.365H165.362V180.385H177.587V179.365H174.572ZM180.771 177.997C180.78 177.416 180.846 176.957 180.968 176.62C181.09 176.283 181.339 175.91 181.715 175.5L182.675 174.511C183.085 174.047 183.29 173.549 183.29 173.017C183.29 172.504 183.156 172.104 182.887 171.815C182.619 171.522 182.228 171.376 181.715 171.376C181.217 171.376 180.817 171.508 180.514 171.771C180.212 172.035 180.06 172.389 180.06 172.833H178.705C178.715 172.042 178.996 171.405 179.547 170.922C180.104 170.434 180.827 170.189 181.715 170.189C182.638 170.189 183.356 170.438 183.869 170.937C184.386 171.43 184.645 172.108 184.645 172.973C184.645 173.827 184.25 174.669 183.459 175.5L182.66 176.291C182.304 176.686 182.126 177.255 182.126 177.997H180.771ZM180.712 180.319C180.712 180.099 180.778 179.916 180.91 179.77C181.046 179.618 181.247 179.542 181.51 179.542C181.774 179.542 181.974 179.618 182.111 179.77C182.248 179.916 182.316 180.099 182.316 180.319C182.316 180.539 182.248 180.722 182.111 180.868C181.974 181.01 181.774 181.081 181.51 181.081C181.247 181.081 181.046 181.01 180.91 180.868C180.778 180.722 180.712 180.539 180.712 180.319ZM196.106 175.915C196.196 175.45 196.256 174.94 196.256 174.385C196.256 173.77 196.181 173.2 196.061 172.675H199.166V175.915H196.106ZM192.911 177.985C191.621 177.985 190.721 176.575 190.721 174.385C190.721 172.21 191.621 170.8 192.911 170.8C194.186 170.8 195.101 172.21 195.101 174.385C195.101 176.575 194.186 177.985 192.911 177.985ZM199.166 168.655V171.67H195.716C195.146 170.41 194.156 169.69 192.911 169.69C190.946 169.69 189.551 171.52 189.551 174.385C189.551 177.25 190.946 179.08 192.911 179.08C194.201 179.08 195.251 178.285 195.806 176.92H199.166V182.14H200.396V168.655H199.166ZM204.595 174.61H209.365V169.9H203.35V170.905H208.165V173.62H203.38V178.885H204.415C206.845 178.885 208.555 178.81 210.58 178.45L210.46 177.43C208.525 177.775 206.89 177.865 204.595 177.865V174.61ZM212.725 168.64V173.83H210.16V174.835H212.725V182.125H213.955V168.64H212.725ZM225.819 173.485H219.279V171.745H225.819V173.485ZM227.034 169.075H225.819V170.8H219.279V169.075H218.064V174.46H227.034V169.075ZM219.204 178.15H217.989V181.81H227.289V180.805H219.204V178.15ZM216.429 175.765V176.755H222.024V179.365H223.254V176.755H228.654V175.765H216.429ZM234.398 169.645C232.313 169.645 230.798 170.92 230.798 172.81C230.798 174.685 232.313 175.975 234.398 175.975C236.498 175.975 237.998 174.685 237.998 172.81C237.998 170.92 236.498 169.645 234.398 169.645ZM234.398 170.695C235.793 170.695 236.798 171.55 236.798 172.81C236.798 174.055 235.793 174.925 234.398 174.925C233.018 174.925 231.998 174.055 231.998 172.81C231.998 171.55 233.018 170.695 234.398 170.695ZM239.768 168.655V182.14H240.998V168.655H239.768ZM230.273 179.185C232.703 179.185 235.958 179.155 238.988 178.6L238.883 177.685C235.943 178.135 232.568 178.15 230.123 178.15L230.273 179.185ZM248.842 170.995H252.607V177.7H248.842V170.995ZM247.642 178.69H253.807V170.005H247.642V178.69ZM259.672 174.025H257.452V168.67H256.222V182.11H257.452V175.06H259.672V174.025ZM266.751 168.955C263.841 168.955 262.026 169.9 262.026 171.505C262.026 173.095 263.841 174.04 266.751 174.04C269.661 174.04 271.476 173.095 271.476 171.505C271.476 169.9 269.661 168.955 266.751 168.955ZM266.751 169.93C268.881 169.93 270.216 170.515 270.216 171.505C270.216 172.495 268.881 173.08 266.751 173.08C264.621 173.08 263.286 172.495 263.286 171.505C263.286 170.515 264.621 169.93 266.751 169.93ZM262.176 177.505V181.93H271.356V177.505H262.176ZM270.156 178.48V180.94H263.376V178.48H270.156ZM260.676 175.195V176.185H272.841V175.195H260.676ZM280.325 169.81C282.53 169.81 283.79 170.32 283.79 171.22C283.79 172.12 282.53 172.63 280.325 172.63C278.12 172.63 276.86 172.12 276.86 171.22C276.86 170.32 278.12 169.81 280.325 169.81ZM280.325 173.545C283.28 173.545 285.05 172.735 285.05 171.22C285.05 169.705 283.28 168.88 280.325 168.88C277.37 168.88 275.6 169.705 275.6 171.22C275.6 172.735 277.37 173.545 280.325 173.545ZM276.95 179.635H284.855V176.605H275.705V177.535H283.64V178.735H275.75V181.96H285.26V181H276.95V179.635ZM274.235 174.46V175.45H286.415V174.46H274.235ZM299.105 174.055C297.35 174.4 295.82 174.505 293.165 174.505V170.545H297.86V169.555H291.935V175.525H292.985C295.805 175.525 297.395 175.42 299.24 175.045L299.105 174.055ZM294.515 177.97H300.545V180.925H294.515V177.97ZM293.315 181.915H301.76V176.995H293.315V181.915ZM303.755 171.94H301.76V168.64H300.53V176.275H301.76V172.96H303.755V171.94ZM308.478 177.985C307.173 177.985 306.258 176.575 306.258 174.385C306.258 172.21 307.173 170.8 308.478 170.8C309.768 170.8 310.683 172.21 310.683 174.385C310.683 176.575 309.768 177.985 308.478 177.985ZM308.478 169.69C306.498 169.69 305.088 171.52 305.088 174.385C305.088 177.25 306.498 179.08 308.478 179.08C310.458 179.08 311.853 177.25 311.853 174.385C311.853 171.52 310.458 169.69 308.478 169.69ZM317.463 174.025H315.243V168.67H314.013V182.11H315.243V175.06H317.463V174.025ZM329.778 175.24C327.798 174.565 326.508 172.9 326.508 171.115V170.59H329.478V169.6H322.263V170.59H325.278V171.13C325.278 173.05 323.928 174.79 321.903 175.495L322.548 176.47C324.123 175.885 325.338 174.7 325.908 173.2C326.493 174.58 327.648 175.675 329.148 176.2L329.778 175.24ZM323.643 178.48H331.173V182.125H332.403V177.49H323.643V178.48ZM334.398 172.195H332.403V168.67H331.173V176.77H332.403V173.215H334.398V172.195ZM345.377 176.62H346.622V168.67H345.377V171.52H342.452V172.525H345.377V176.62ZM343.427 175.03C341.462 174.34 340.157 172.675 340.157 170.755V169.42H338.927V170.8C338.927 172.855 337.592 174.655 335.522 175.39L336.167 176.395C337.787 175.78 339.002 174.565 339.572 172.975C340.157 174.37 341.297 175.435 342.767 175.99L343.427 175.03ZM342.182 181.12C340.157 181.12 338.927 180.535 338.927 179.56C338.927 178.57 340.157 177.985 342.182 177.985C344.207 177.985 345.437 178.57 345.437 179.56C345.437 180.535 344.207 181.12 342.182 181.12ZM342.182 177.025C339.422 177.025 337.697 177.94 337.697 179.56C337.697 181.165 339.422 182.095 342.182 182.095C344.942 182.095 346.667 181.165 346.667 179.56C346.667 177.94 344.942 177.025 342.182 177.025ZM352.441 177.97C351.391 177.97 350.656 177.115 350.656 175.915C350.656 174.745 351.391 173.89 352.441 173.89C353.476 173.89 354.226 174.745 354.226 175.915C354.226 177.115 353.476 177.97 352.441 177.97ZM352.441 172.855C350.776 172.855 349.561 174.115 349.561 175.915C349.561 177.745 350.776 178.99 352.441 178.99C354.106 178.99 355.321 177.745 355.321 175.915C355.321 174.115 354.106 172.855 352.441 172.855ZM353.041 169.045H351.826V170.95H349.096V171.955H355.771V170.95H353.041V169.045ZM359.326 168.64V174.325H357.601V168.955H356.446V181.45H357.601V175.33H359.326V182.095H360.511V168.64H359.326ZM367.38 175.195C369.465 174.835 371.445 173.71 372.27 172.12C373.08 173.71 375.075 174.835 377.16 175.195L377.64 174.22C375.27 173.875 372.945 172.33 372.945 170.56V170.485H377.16V169.495H367.335V170.485H371.58V170.56C371.58 172.33 369.255 173.875 366.915 174.22L367.38 175.195ZM378.345 176.32H366.195V177.325H371.625V182.11H372.855V177.325H378.36L378.345 176.32ZM383.744 169.93H382.559V172.495C382.559 174.805 381.449 177.22 379.604 178.3L380.369 179.215C381.704 178.39 382.679 176.875 383.159 175.09C383.639 176.725 384.539 178.15 385.814 178.93L386.519 177.97C384.749 176.89 383.744 174.61 383.744 172.45V169.93ZM387.284 173.485H385.064V174.505H387.284V181.45H388.439V168.955H387.284V173.485ZM390.014 168.655V182.11H391.184V168.655H390.014ZM54.01 194.2C54.565 194.335 55.21 194.41 55.87 194.41C56.545 194.41 57.19 194.335 57.76 194.2V197.365H54.01V194.2ZM55.87 188.47C58.03 188.47 59.59 189.46 59.59 190.96C59.59 192.46 58.03 193.45 55.87 193.45C53.71 193.45 52.165 192.46 52.165 190.96C52.165 189.46 53.71 188.47 55.87 188.47ZM58.99 197.365V193.72C60.1 193.135 60.76 192.175 60.76 190.96C60.76 188.86 58.735 187.51 55.87 187.51C53.02 187.51 50.98 188.86 50.98 190.96C50.98 192.175 51.655 193.15 52.78 193.735V197.365H49.78V198.385H62.005V197.365H58.99ZM63.6285 198.29C63.6285 198.055 63.6969 197.86 63.8336 197.704C63.9752 197.547 64.1852 197.469 64.4635 197.469C64.7418 197.469 64.9518 197.547 65.0934 197.704C65.2398 197.86 65.3131 198.055 65.3131 198.29C65.3131 198.514 65.2398 198.702 65.0934 198.854C64.9518 199.005 64.7418 199.081 64.4635 199.081C64.1852 199.081 63.9752 199.005 63.8336 198.854C63.6969 198.702 63.6285 198.514 63.6285 198.29Z" fill="#ABA1A1"/>
<path d="M130.08 103.68L134.36 90.96L124.04 84.04H136.68L141.2 70.4L145.8 84.04H158.36L148.04 90.96L152.4 103.68L141.2 95.56L130.08 103.68ZM167.878 103.68L172.158 90.96L161.838 84.04H174.478L178.998 70.4L183.598 84.04H196.158L185.838 90.96L190.198 103.68L178.998 95.56L167.878 103.68ZM205.677 103.68L209.957 90.96L199.637 84.04H212.277L216.797 70.4L221.397 84.04H233.957L223.637 90.96L227.997 103.68L216.797 95.56L205.677 103.68ZM243.475 103.68L247.755 90.96L237.435 84.04H250.075L254.595 70.4L259.195 84.04H271.755L261.435 90.96L265.795 103.68L254.595 95.56L243.475 103.68Z" fill="#CECECE"/>
<path d="M281.274 103.68L285.554 90.96L275.234 84.04H287.874L292.394 70.4L296.994 84.04H309.554L299.234 90.96L303.594 103.68L292.394 95.56L281.274 103.68Z" fill="#C9C9C9"/>
<rect x="164.665" y="256" width="111.67" height="33" rx="6" fill="#76BE00"/>
<path d="M219.636 268.855H211.641V266.26H219.546V265.27H210.411V269.845H219.636V268.855ZM214.956 277.21C212.841 277.21 211.596 276.685 211.596 275.74C211.596 274.795 212.841 274.27 214.956 274.27C217.071 274.27 218.316 274.795 218.316 275.74C218.316 276.685 217.056 277.21 214.956 277.21ZM214.956 273.31C212.091 273.31 210.351 274.18 210.351 275.74C210.351 277.3 212.091 278.17 214.956 278.17C217.821 278.17 219.561 277.3 219.561 275.74C219.561 274.18 217.821 273.31 214.956 273.31ZM208.881 271.135V272.155H221.061V271.135H208.881ZM223.805 275.17H231.935V278.065H233.165V274.165H223.805V275.17ZM229.175 272.125V270.715H233.375V269.755H225.23V268.345H233.09V265.075H223.985V266.035H231.875V267.43H224.015V270.715H227.93V272.125H222.44V273.13H234.65V272.125H229.175Z" fill="white"/>
</svg>
